<svg width="47" height="63" viewBox="0 0 47 63" fill="none" xmlns="http://www.w3.org/2000/svg">
<path d="M18.9263 49.7415C17.3608 50.2386 15.6585 50.212 14.0949 49.6432C12.5313 49.0739 11.2109 48.0003 10.331 46.6133C8.68955 46.545 7.09936 45.9377 5.82494 44.8684C5.66397 44.7335 5.50918 44.592 5.36151 44.4448L1.29607 52.9527C0.990756 53.5914 1.07765 54.3482 1.51924 54.9014C1.96082 55.4546 2.6797 55.7067 3.37057 55.55L11.5195 53.702L15.2008 61.2033C15.5113 61.8357 16.1547 62.2365 16.8584 62.2365H16.8684C17.5763 62.2327 18.2197 61.8243 18.5246 61.1857L23.2505 51.2961C21.676 51.2434 20.1622 50.694 18.9263 49.7415Z" fill="#AB2630"/>
<path d="M41.1746 44.8684C39.9002 45.9377 38.3095 46.5445 36.6685 46.6129C35.7887 48.0003 34.4677 49.0739 32.9041 49.6427C31.341 50.212 29.6388 50.2386 28.0733 49.7415C26.8373 50.694 25.3236 51.2434 23.7491 51.2961L28.4745 61.1857C28.7798 61.8243 29.4232 62.2322 30.1312 62.236H30.1407C30.8448 62.236 31.4877 61.8357 31.7983 61.2033L35.48 53.702L43.629 55.5495C44.3194 55.7067 45.0382 55.4546 45.4798 54.9014C45.9219 54.3482 46.0083 53.5914 45.7035 52.9527L41.6376 44.4448C41.4899 44.592 41.3356 44.733 41.1746 44.8684Z" fill="#AB2630"/>
<path d="M46.194 22.6676C46.8559 21.82 47.1284 20.7275 46.9423 19.6705C46.7557 18.6136 46.1261 17.6801 45.2144 17.1098C44.496 16.6606 44.175 15.7803 44.4371 14.974C44.769 13.9513 44.6517 12.8316 44.1147 11.9019C43.5782 10.9722 42.667 10.3108 41.6152 10.0867C40.7867 9.91052 40.1841 9.19259 40.1542 8.34598C40.1162 7.27097 39.6229 6.25913 38.801 5.56921C37.9786 4.87881 36.8964 4.56923 35.8309 4.71832C34.9924 4.83655 34.1804 4.36743 33.8628 3.58207C33.4597 2.58494 32.6501 1.80243 31.6411 1.43539C30.6326 1.06835 29.5091 1.14717 28.56 1.65191C27.8116 2.04934 26.8886 1.88647 26.3212 1.25686C25.6018 0.458205 24.5733 0 23.4998 0C22.4262 0 21.3977 0.458205 20.6784 1.25686C20.1109 1.88647 19.1879 2.04934 18.4396 1.65191C17.4904 1.14717 16.367 1.06835 15.3584 1.43539C14.3494 1.80243 13.5399 2.58494 13.1367 3.58207C12.8191 4.36743 12.0076 4.83655 11.1686 4.71832C10.1036 4.56923 9.02096 4.87881 8.19857 5.56921C7.37617 6.25913 6.88331 7.27097 6.84532 8.34598C6.81541 9.19259 6.21333 9.91052 5.38429 10.0872C4.33255 10.3108 3.42137 10.9722 2.88482 11.9019C2.34779 12.8316 2.23051 13.9513 2.56241 14.974C2.82404 15.7803 2.50353 16.6606 1.78512 17.1103C0.873463 17.6801 0.243847 18.6136 0.0572413 19.6705C-0.12889 20.728 0.143659 21.82 0.805563 22.6681C1.32692 23.3357 1.32692 24.273 0.805563 24.9406C0.143659 25.7881 -0.12889 26.8807 0.0572413 27.9377C0.243847 28.9951 0.873463 29.9281 1.78512 30.4984C2.50353 30.9476 2.82451 31.8279 2.56289 32.6342C2.23051 33.6569 2.34827 34.7766 2.88482 35.7063C3.42184 36.636 4.33255 37.2974 5.38429 37.5215C6.21333 37.6977 6.81541 38.4156 6.84532 39.2627C6.88331 40.3372 7.37665 41.3495 8.19904 42.0395C9.02144 42.7294 10.104 43.0394 11.1686 42.8899C12.0076 42.7726 12.8191 43.2408 13.1367 44.0266C13.5399 45.0233 14.3499 45.8058 15.3584 46.1728C16.3674 46.5398 17.4904 46.461 18.44 45.9568C18.7135 45.811 19.0113 45.7407 19.3056 45.7407C19.8161 45.7407 20.3184 45.952 20.6784 46.3513C21.3982 47.1505 22.4267 47.6082 23.4998 47.6082C24.5733 47.6082 25.6018 47.15 26.3216 46.3513C26.8886 45.7217 27.8116 45.5593 28.56 45.9568C29.5096 46.4615 30.6326 46.5398 31.6416 46.1728C32.6501 45.8058 33.4597 45.0233 33.8628 44.0266C34.1804 43.2408 34.9924 42.7721 35.8314 42.8899C36.896 43.039 37.9786 42.7294 38.801 42.0395C39.6234 41.3495 40.1167 40.3372 40.1547 39.2627C40.1841 38.4156 40.7867 37.6982 41.6152 37.5215C42.667 37.2974 43.5782 36.636 44.1152 35.7063C44.6517 34.7766 44.769 33.6569 44.4371 32.6342C44.1755 31.8284 44.496 30.9476 45.2144 30.4984C46.1265 29.9281 46.7562 28.9951 46.9428 27.9382C47.1289 26.8807 46.8563 25.7886 46.1944 24.9406C45.6726 24.2725 45.6726 23.3357 46.194 22.6676ZM23.4998 39.984C14.5783 39.984 7.31967 32.7258 7.31967 23.8043C7.31967 14.8824 14.5783 7.62424 23.4998 7.62424C32.4212 7.62424 39.6794 14.8824 39.6794 23.8043C39.6794 32.7258 32.4212 39.984 23.4998 39.984Z" fill="#AB2630"/>
<path d="M23.4998 11.3174C16.6143 11.3174 11.0128 16.9189 11.0128 23.8043C11.0128 30.6892 16.6143 36.2907 23.4998 36.2907C30.3852 36.2907 35.9862 30.6892 35.9862 23.8043C35.9862 16.9189 30.3847 11.3174 23.4998 11.3174ZM15.7003 21.5137C16.4216 20.7925 17.5906 20.7925 18.3118 21.5137L21.9917 25.1936L28.6877 18.4977C29.4089 17.7764 30.578 17.7764 31.2992 18.4977C32.0205 19.2184 32.0205 20.3879 31.2992 21.1087L23.2975 29.1109C22.9513 29.4571 22.4813 29.6517 21.9917 29.6517C21.5022 29.6517 21.0326 29.4571 20.686 29.1109L15.7008 24.1253C14.979 23.404 14.9791 22.235 15.7003 21.5137Z" fill="#AB2630"/>
</svg>
