<svg width="42" height="42" viewBox="0 0 42 42" fill="none" xmlns="http://www.w3.org/2000/svg">
<circle cx="21" cy="21" r="21" fill="#A7242E"/>
<path d="M29.8281 17.5058C27.9534 18.7356 23.6957 21.528 22.0214 22.6263L22.0214 22.6263C21.4028 23.0321 20.5972 23.0321 19.9787 22.6263L19.9786 22.6263C18.3037 21.5276 14.0469 18.7357 12.1719 17.5058V26.9255C12.1719 27.0947 12.238 27.2569 12.3562 27.379L12.3678 27.3907L12.3683 27.3912C12.4936 27.5146 12.6636 27.5839 12.8412 27.5839H29.1589C29.3365 27.5839 29.5064 27.5146 29.6317 27.3912L29.6323 27.3907C29.7577 27.2674 29.8281 27.1002 29.8281 26.9255V17.5058ZM29.8281 15.8107C29.8281 15.4475 29.5288 15.1529 29.1595 15.1529H12.8406C12.4712 15.1529 12.1719 15.4475 12.1719 15.8107V15.8117L12.1722 15.8297C12.1779 16.0096 12.2687 16.1766 12.4179 16.2812L12.433 16.2914L20.6288 21.6671L20.6393 21.6739C20.8628 21.8146 21.1499 21.8123 21.3713 21.6671L25.5485 18.9272C27.1726 17.862 28.7701 16.8142 29.5669 16.2915L29.567 16.2914L29.5821 16.2812C29.7313 16.1766 29.8221 16.0097 29.8278 15.8297L29.8281 15.8117V15.8107ZM31 26.9255L30.9999 26.948C30.9939 27.4199 30.801 27.8714 30.4609 28.2059L30.4609 28.2059C30.1155 28.5462 29.6471 28.7368 29.1589 28.7368H12.8412C12.3529 28.7368 11.8845 28.5462 11.5391 28.2059L11.5392 28.2059C11.1936 27.8661 11 27.4056 11 26.9255V15.8107L11.0001 15.7873C11.0129 14.798 11.832 14 12.8406 14H29.1595C30.1759 14 31 14.8107 31 15.8107V26.9255Z" fill="white"/>
</svg>
