<svg width="20" height="15" viewBox="0 0 20 15" fill="none" xmlns="http://www.w3.org/2000/svg">
<path d="M18.8281 3.50583C16.9534 4.73557 12.6957 7.52798 11.0214 8.62632L11.0214 8.62635C10.4028 9.03207 9.59721 9.03207 8.97867 8.62635L8.97864 8.62632C7.30371 7.52757 3.04686 4.73572 1.17188 3.5058V12.9255C1.17188 13.0947 1.23799 13.2569 1.35619 13.379L1.36777 13.3907L1.36832 13.3912C1.49361 13.5146 1.66355 13.5839 1.84116 13.5839H18.1589C18.3365 13.5839 18.5064 13.5146 18.6317 13.3912L18.6323 13.3907C18.7577 13.2674 18.8281 13.1002 18.8281 12.9255V3.50583ZM18.8281 1.8107C18.8281 1.44746 18.5288 1.15293 18.1595 1.15292H1.84056C1.47124 1.15292 1.17188 1.44746 1.17188 1.8107V1.81166L1.17217 1.8297C1.17787 2.00962 1.26868 2.17662 1.4179 2.28119L1.43303 2.29144L9.62875 7.66708L9.63934 7.67389C9.86277 7.81456 10.1499 7.81229 10.3713 7.66708L14.5485 4.9272C16.1726 3.86202 17.7701 2.8142 18.5669 2.29155L18.567 2.29144L18.5821 2.28119C18.7313 2.17663 18.8221 2.00965 18.8278 1.8297L18.8281 1.81166V1.8107ZM20 12.9255L19.9999 12.948C19.9939 13.4199 19.801 13.8714 19.4609 14.2059L19.4609 14.2059C19.1155 14.5462 18.6471 14.7368 18.1589 14.7368H1.84116C1.35291 14.7368 0.884545 14.5462 0.539133 14.2059L0.539162 14.2059C0.193635 13.8661 0 13.4056 0 12.9255V1.8107L0.000143052 1.78731C0.0128741 0.798041 0.832034 0 1.84056 0H18.1595C19.1759 7.60709e-06 20 0.810667 20 1.8107V12.9255Z" fill="white"/>
</svg>
