<svg width="83" height="50" viewBox="0 0 83 50" fill="none" xmlns="http://www.w3.org/2000/svg">
<path fill-rule="evenodd" clip-rule="evenodd" d="M33.28 13.947C33.6275 13.947 33.9077 13.6642 33.9077 13.3177C33.9168 12.9702 33.6432 12.6817 33.2958 12.6726C32.9484 12.6635 32.6598 12.9371 32.6507 13.2845C32.6507 13.2961 32.6507 13.3069 32.6507 13.3185C32.6507 13.6642 32.9301 13.947 33.28 13.947ZM40.8783 26.8468C41.8119 26.8468 42.4396 26.7207 42.9462 26.5342C43.4495 26.3468 43.8358 26.1221 44.1178 25.8908C44.3847 25.6719 44.5547 25.4505 44.8391 25.3046C45.0903 25.1744 45.4444 25.1437 45.8415 25.1437C46.412 25.1437 47.0537 25.3203 47.5222 25.5782L47.5894 24.7051C47.2768 24.5509 46.1749 24.1645 45.218 24.1645C44.131 24.1645 43.7198 24.458 43.3185 24.8203C42.8517 25.244 42.2605 25.7473 40.6644 25.7473C40.239 25.7473 39.2184 25.6321 38.8038 25.6321C38.5517 25.6321 38.3585 25.6951 38.3585 25.6951C38.4348 25.9339 38.5973 26.5914 38.5973 26.5914C38.9796 26.6411 39.6462 26.8468 40.8783 26.8468ZM35.9706 24.259C36.294 24.259 37.2342 24.4024 38.3204 24.5069C38.9373 24.565 39.5973 24.6106 40.2208 24.6106C41.4405 24.6106 42.7762 24.0302 43.9577 23.4249L43.7264 22.5841C43.175 22.8859 42.1245 23.2226 41.2498 23.3619C41.0342 23.3967 40.409 23.4058 40.2307 23.3768C39.9356 23.3312 39.5815 23.2251 39.2018 23.1554C38.6678 23.0551 38.0841 23.031 37.7383 23.0161C37.3569 22.9987 36.6721 23.0634 36.3363 23.0858C35.1008 23.1596 34.2841 23.4506 33.5023 23.9779C33.1076 24.2449 32.6035 24.681 32.2146 25.2092C32.4144 25.2241 32.9857 25.3833 32.9857 25.3833C33.8273 24.6661 35.0934 24.259 35.9706 24.259Z" fill="#AB2630"/>
<path fill-rule="evenodd" clip-rule="evenodd" d="M21.0809 24.6645C21.6829 24.6645 21.9241 24.8594 22.2558 25.0592C22.488 25.2026 22.6712 25.361 22.8445 25.5177C23.2159 25.8494 23.1098 26.1537 22.8188 26.3833C22.6687 26.5027 22.541 26.6462 22.1629 26.8916C21.9805 27.0118 21.6663 27.2042 21.4515 27.2954C21.0734 27.4521 20.9084 27.4695 20.7716 27.4695C20.6323 27.4695 20.4118 27.4479 20.2874 27.3244L19.3256 27.9123C19.6141 28.1378 19.9425 28.2141 20.4939 28.2141C21.1174 28.2141 21.614 28.0798 22.2284 27.8393C23.0244 27.5242 23.9199 26.9049 24.2175 26.7357C24.8261 26.3883 25.4405 26.1628 26.098 26.1628C26.6776 26.1628 27.331 26.506 28.0631 26.8559C28.9271 27.2705 29.9826 27.6768 30.9527 27.6768C31.5347 27.6768 32.1864 27.5922 32.868 27.4529C34.0793 27.2058 35.3819 26.7971 36.6571 26.3651L36.2434 25.6205C35.9325 25.7349 34.8687 26.0343 33.7236 26.2888C32.7751 26.4969 31.8125 26.6851 31.3133 26.6851C30.9054 26.6851 30.4253 26.6553 29.995 26.5226C29.2654 26.3029 28.6095 26.0732 28.6095 25.487C28.6095 25.0816 28.7828 24.7947 29.2745 24.5974C30.0688 24.2781 31.3067 24.298 31.9584 24.298C32.0803 24.1679 32.5728 23.575 32.5728 23.575C32.0513 23.4697 31.5198 23.4158 30.9875 23.4142C30.1716 23.4142 29.4171 23.5186 28.7919 23.7815C28.2123 24.0253 27.7563 24.3768 27.4263 24.8519C27.2937 25.041 27.1568 25.2209 26.9579 25.2209C26.627 25.2209 26.0541 24.9514 25.4554 24.9514C25.1943 24.9514 24.9737 25.0053 24.7432 25.0053C24.1371 25.0053 23.3469 24.565 22.643 24.1894C22.2002 23.9531 21.7442 23.7309 21.2144 23.7309C20.9947 23.7309 20.6937 23.7856 20.4259 23.8984C19.9118 24.1131 19.3903 24.4606 19.1274 24.6803L19.5984 25.0036C19.8737 24.8602 20.3736 24.6645 21.0809 24.6645ZM63.6216 31.4237C61.3564 29.5133 59.1658 27.4239 57.6203 25.715C54.9521 22.7691 51.3172 17.1467 50.076 13.9653C49.6175 12.7945 48.6706 13.1925 49.1556 14.3823C50.328 17.2578 53.031 21.4848 55.8534 24.9705C55.1959 24.6794 54.38 24.2881 53.9389 24.0932C53.7889 24.3387 53.4174 24.8245 53.0352 25.2242C52.5924 25.6844 52.1364 26.0575 51.9954 26.1885C51.6845 26.4779 51.4573 26.4994 51.2484 26.1785C51.1539 26.026 50.9515 25.7532 50.8471 25.2789L50.2476 24.5194C49.9259 24.1156 48.4202 22.0552 47.9592 21.3621C47.499 20.6722 46.9028 19.9334 45.9361 19.9334C44.7396 19.9334 44.3275 21.2584 44.2338 22.4673L45.0282 22.1224C45.2131 21.3737 45.5804 20.9823 45.9361 20.9823C46.1898 20.9823 46.5007 21.3513 46.5007 21.6274C46.3855 21.9507 46.1765 22.6199 46.0745 23.1364L46.8572 23.4017C46.8572 23.0212 47.0173 22.3305 47.237 21.9731C47.237 21.9731 47.4534 22.1572 47.5347 22.3073C47.5861 22.4043 47.9733 22.9955 48.421 23.7815C48.8206 24.4829 49.2651 25.3494 49.673 26.0392C49.8703 26.3717 50.0967 26.6694 50.2484 26.9032C50.4499 27.2125 50.6315 27.4281 50.8239 27.5375C51.0038 27.637 51.1978 27.6395 51.3545 27.6395C51.8603 27.6395 52.0924 27.472 52.4357 27.1793C53.0791 26.6246 53.633 25.8543 54.2059 25.1637L55.5566 25.7731C56.0789 26.0218 56.6063 26.2598 57.1378 26.4878C58.2894 27.7954 59.5788 29.0764 60.9311 30.2944L61.8498 31.1045C62.1002 31.3209 62.3514 31.534 62.6059 31.7446L63.6216 31.4237Z" fill="#AB2630"/>
<path fill-rule="evenodd" clip-rule="evenodd" d="M68.691 31.0318C66.3777 25.9682 63.3298 19.7405 60.7222 15.9257L60.1136 15.07C59.243 13.8959 58.3011 12.9225 57.3782 11.9781L56.6619 11.2725C54.8552 9.5222 52.8279 7.77188 51.2824 6.52485C49.9193 5.42707 48.9508 2.89404 45.8283 2.89404C43.0142 2.89404 42.0524 4.80687 41.7373 5.92787C41.5284 6.66332 41.438 6.91786 41.2415 7.19397L39.4539 9.32237L41.5624 9.15323L40.4936 10.9268C41.1063 10.7991 44.8035 10.0562 45.5638 11.2501C46.4866 12.6945 45.8573 14.2616 47.5828 17.5475L48.329 18.8459C49.188 20.2272 50.2053 21.5837 51.1091 22.6541L50.2451 24.5189L50.8446 25.2784L52.1878 22.4452C51.5021 21.8325 49.4492 19.0731 48.6009 17.5375C46.6724 14.046 47.4302 12.2501 46.2536 10.6498C45.1633 9.16484 42.0466 9.86629 42.0466 9.86629L43.1966 8.25361L41.2067 8.49655L42.127 7.38965C42.3227 7.10359 42.3683 6.92947 42.4487 6.65337C42.8392 5.23637 43.8641 3.83097 45.8101 3.83097C48.1723 3.83097 48.848 5.6443 50.4897 7.08784C52.1522 8.55127 55.6379 11.3654 58.8267 15.0045C61.3979 17.938 64.6946 24.7585 67.2259 30.1413C64.4583 28.7923 59.7695 24.1549 57.8061 20.6799L56.8791 20.5713C58.9876 24.5711 63.5122 29.2284 67.9879 31.7639L68.691 31.0318Z" fill="#AB2630"/>
<path fill-rule="evenodd" clip-rule="evenodd" d="M62.281 14.3139C63.0189 13.784 63.8928 13.3512 64.8132 13.0022C65.3795 13.6887 66.7152 14.2898 67.7748 14.4308L67.6057 15.5518C66.43 14.9589 64.353 14.3553 62.281 14.3139L61.3523 15.1123C64.1639 15.1646 65.9532 15.7334 68.2699 16.7084L68.73 13.7492C67.8113 13.6232 66.3628 13.3604 65.862 12.6481C67.9813 12.003 70.1802 11.7593 71.4795 11.7775V8.13179C70.8999 8.47091 70.1702 8.78764 69.4821 9.00073C68.6396 9.25859 67.8744 9.37218 67.6629 9.00073C67.4299 8.59279 68.5916 7.8648 69.7897 7.22885L67.0941 4.99017C66.6862 5.53989 65.7584 7.07712 64.8123 8.09282C64.1407 8.81417 63.4484 9.28678 63.0529 8.99244C62.8456 8.83573 62.8373 8.38468 63.0089 7.81589C63.3365 6.72308 64.1988 5.20575 64.7236 4.53663L60.9983 4.18425C60.9983 5.70655 60.2836 7.38307 59.403 8.73789C58.6444 9.90366 57.5424 10.751 56.661 11.2717L57.3774 11.9773C58.4677 11.2195 59.529 10.2925 60.3499 8.97171C61.0107 7.91041 61.6243 6.6269 61.8548 5.12366L63.1449 5.27374C62.6085 6.2571 62.0024 7.78438 61.9568 8.78266C61.9891 9.46173 62.1201 9.58361 62.47 9.84231C63.1167 10.3265 63.9185 10.0007 64.6822 9.34731C65.5246 8.62844 66.3529 7.42287 67.1928 6.33255L68.2815 7.24046C66.9009 8.09116 66.5104 9.00156 66.9316 9.60434C67.0958 9.83899 67.4507 10.0148 67.8909 10.028C68.3279 10.0388 68.8444 9.9103 69.4091 9.77598C69.8062 9.67979 70.2366 9.54133 70.6337 9.41944V10.8696C67.4963 11.0935 62.1417 12.3637 60.1136 15.0667L60.7222 15.9224C60.898 15.6339 61.1102 15.3636 61.3515 15.1098L62.281 14.3139ZM21.2567 7.1874L21.6779 7.50413C22.7815 6.60534 24.0708 4.97027 24.7988 3.43056L24.4232 3.16357C23.7193 3.80865 22.0411 5.91218 21.2567 7.1874Z" fill="#AB2630"/>
<path fill-rule="evenodd" clip-rule="evenodd" d="M20.6101 6.20378C19.9915 4.01982 21.5785 2.71227 23.2351 2.83332C23.8561 1.63687 24.8312 1.39808 25.8668 2.0191C26.8311 2.5995 26.7507 4.07289 25.9472 4.76356C26.2341 6.07692 25.0684 7.94912 23.2575 7.85543C23.4723 9.66876 21.2485 10.7002 19.9003 9.5162C18.7793 8.53367 19.014 6.89611 20.6101 6.20378ZM19.8431 5.86964C19.2677 5.99567 18.9684 6.28421 18.7122 6.90772C18.8838 5.48989 17.9411 4.1301 16.3889 4.23457C16.5406 1.70071 14.0308 0.191676 11.8112 1.42544C10.5003 0.302781 9.03442 0.530795 8.15221 1.57551C7.30981 2.5738 7.338 4.25944 9.04105 5.15823C8.61073 6.90855 10.2135 8.64726 12.0981 8.24347C12.2067 8.78241 12.6014 9.07095 13.1229 9.2857C12.3394 9.3313 12.0177 10.1107 12.0177 10.1107C9.51864 9.4706 8.22932 11.1314 8.18704 12.8751C6.36293 13.4289 5.853 15.7091 7.24928 17.0398C8.69281 18.4203 10.4149 17.854 11.1661 16.442C12.7772 17.0548 14.5018 16.0598 14.5466 14.2796C16.3425 14.4488 17.0307 13.0334 16.864 11.5418L16.2944 11.4962C16.049 12.8817 15.3914 13.4787 13.8882 13.4787C13.8227 14.8094 12.4007 15.9644 10.7897 15.6593C10.3378 16.7231 9.0112 17.0705 8.10578 16.1808C7.20285 15.2903 7.50217 13.6163 9.09578 13.3145C9.03027 11.6819 10.6197 10.6704 12.8891 10.7782C13.5342 9.97886 14.0549 9.63974 15.0216 9.73343L15.0308 9.26911C14.1253 9.14723 13.1047 8.28907 13.0292 7.36706C11.0965 7.52045 9.77401 6.41355 9.83952 4.6765C8.59746 4.09444 8.82133 2.82005 9.22263 2.33584C9.91497 1.50006 10.8834 1.56722 11.6653 2.24214C13.8733 1.39808 15.6518 3.14093 15.6518 5.04547C15.6518 5.04547 16.6841 5.02557 17.2636 5.62918C18.0306 6.43014 18.0306 7.12744 18.2122 7.90435C18.3838 8.63814 18.7528 9.61321 19.6541 10.3163C21.2477 11.5584 23.7169 11.2217 23.9689 8.60166C26.0899 8.78987 27.4845 7.12496 26.7847 5.08858C28.2697 4.02894 27.9745 1.84415 26.5782 0.99926C25.3768 0.205772 23.7591 0.536599 22.9657 1.73802C22.8927 1.8483 22.8288 1.96355 22.7741 2.08295C20.6009 1.58298 18.8299 3.75035 19.8431 5.86964ZM29.6494 18.5654C29.8401 17.801 28.8327 17.6874 28.6942 18.3922C28.5466 19.1458 27.6304 20.431 26.7623 21.2369L27.0724 21.5711C28.2116 20.7196 29.4048 19.5405 29.6494 18.5654ZM34.7104 5.93845C35.0645 5.92519 35.3398 5.62753 35.3265 5.27431C35.3141 4.93934 35.0454 4.6707 34.7104 4.65826C34.3564 4.65826 34.072 4.9468 34.072 5.29836C34.0728 5.6524 34.3572 5.93845 34.7104 5.93845ZM44.1386 6.523C44.1486 6.10345 44.4968 5.7718 44.9163 5.78258C45.321 5.79253 45.6476 6.11838 45.6568 6.523C45.6584 6.94254 45.3185 7.28415 44.8989 7.28498C44.8981 7.28498 44.8981 7.28498 44.8973 7.28498C44.4802 7.28498 44.1386 6.9442 44.1386 6.523ZM42.9355 20.1831C37.9938 19.8034 33.0737 20.1135 33.0737 20.1135L33.4203 19.208C38.1456 18.8648 43.0052 19.208 43.0052 19.208L42.9355 20.1831Z" fill="#AB2630"/>
<path fill-rule="evenodd" clip-rule="evenodd" d="M13.0731 23.622C13.0731 23.622 13.3534 23.996 13.7895 24.4603C13.9371 24.6693 14.0996 24.8185 14.3061 25.0117C15.2123 25.8956 16.5447 26.5572 17.9195 26.8225C18.31 26.8972 18.6574 26.9552 19.0446 26.9552C19.6308 26.9552 20.1706 26.6401 20.5163 26.3317L19.9782 25.704C19.8049 25.7554 19.4442 25.7554 19.2055 25.7554C17.2122 25.7554 14.6825 24.4512 14.1004 22.9397C14.0416 22.7921 13.9719 22.71 14.0308 22.5707C14.0872 22.4314 14.161 22.1387 14.2024 21.8701C14.3202 22.0044 14.5606 22.2067 14.8666 22.404C15.6095 22.88 17.0207 23.5375 17.2968 23.7141C17.8747 23.5483 18.4352 23.3252 18.9683 23.0475C19.3829 22.8327 19.95 22.6395 20.6059 22.6395C22.0627 22.6395 23.7367 23.4687 25.3096 24.2439L26.3842 23.8227C24.9879 22.8393 21.9532 21.4646 20.2634 21.4646C19.2685 21.4646 18.3324 22.1943 17.6666 22.1943C16.8474 22.1943 14.5026 21.0501 14.5026 20.0965C14.5026 19.3627 16.0199 18.9457 18.4601 18.6455C18.0347 19.2732 17.6351 19.9191 17.2636 20.5808L17.8846 20.9257C21.7061 15.382 25.6794 11.7827 29.0241 9.59132C30.2397 8.79368 30.5158 8.32771 30.9395 7.45711C31.9751 5.33783 32.9526 3.7069 34.6524 3.7069C35.445 3.7069 36.0942 4.15464 36.5395 4.70602L37.7683 5.07499L36.5237 5.91905L37.7965 6.42732C36.1349 6.89412 33.8663 8.51178 32.946 10.8848C31.1758 10.9785 30.3226 12.4137 29.7455 13.6168C29.3541 14.4269 28.7339 14.7502 27.8285 15.3646L20.5918 20.4174L21.5884 20.5567L28.2738 16.0702C29.5946 15.1806 30.2198 14.5247 30.5365 13.8896C31.155 12.6475 31.8242 11.7247 33.1359 11.7247C33.7809 11.7247 34.4683 12 35.0205 12.524L36.1954 12.9062L34.9144 13.6898L35.9889 14.3522C32.9186 15.3149 31.0182 17.5163 29.9155 21.7241L30.7272 21.9066C31.1335 20.5153 31.5373 19.2359 32.2553 18.1066C34.0313 18.0875 35.8322 18.022 37.5975 18.022C42.3095 18.022 46.2214 18.2218 48.3324 18.8445L47.5861 17.5461C45.3284 17.1597 42.0516 16.9624 37.5983 16.9624C36.1067 16.9624 34.5927 17.0163 33.0903 17.0337C34.0612 16.0064 35.455 15.1399 37.6049 14.4741L36.081 13.6334L37.7741 12.6906L35.4657 11.8308C35.062 11.4685 34.5603 11.136 33.9285 10.9752C34.6689 8.70165 37.1854 7.37337 39.5998 6.45634L37.9084 5.76317L39.6123 4.82956L36.9872 3.9913C36.3007 3.18372 35.6432 2.81641 34.6308 2.81641C32.1948 2.81641 31.17 4.9332 30.2057 6.80955C29.6949 7.79955 29.3757 8.2166 28.5117 8.78125C26.6379 10.0075 24.2516 11.8839 21.9723 14.2876C20.7825 13.4286 18.3473 10.913 17.6906 9.54074C17.4294 9.86411 17.1716 10.568 17.1716 10.568C17.422 10.8301 20.285 13.7287 21.3513 14.9584C21.2708 15.0471 21.1912 15.1366 21.1108 15.2278C19.9749 15.4533 17.0265 15.7386 16.0232 15.6018L15.4586 16.6034C16.2073 16.5296 19.1391 16.1838 20.3546 16.1125C19.9824 16.5652 19.6209 17.0271 19.271 17.498C15.5042 17.9275 12.9852 18.7011 12.9852 20.0949C12.9852 20.3254 13.0781 20.5857 13.0781 20.8303C13.0781 21.414 12.8584 21.6296 12.4438 21.89C12.1743 22.0616 12.1569 22.1793 12.2722 22.3394C12.8973 23.3493 10.9563 23.8509 12.3087 25.6576L13.4554 25.7272C13.4554 25.7281 12.3369 25.0772 13.0731 23.622ZM11.5873 3.56429L11.2142 3.94653C11.7506 4.71348 14.1261 6.84106 15.3309 7.63206L15.7736 7.08234C14.9835 6.15287 12.7373 4.14884 11.5873 3.56429ZM9.94727 14.2917L10.2988 14.6756C11.2042 14.237 12.9065 12.9775 13.8268 12.0331L13.5731 11.6575C12.4919 12.1094 10.8204 13.3465 9.94727 14.2917Z" fill="#AB2630"/>
<path fill-rule="evenodd" clip-rule="evenodd" d="M62.4077 29.9821C62.4085 29.3213 61.8737 28.7848 61.2129 28.784H61.2121L59.441 28.7831C58.7794 28.784 58.2438 29.3221 58.2446 29.9837V29.9846L58.2454 48.5126C58.2438 49.1734 58.7786 49.7098 59.4386 49.7115C59.4394 49.7115 59.4402 49.7115 59.441 49.7115H61.2121C61.8737 49.7098 62.4085 49.1726 62.4069 48.5109V29.9821H62.4077ZM64.6655 30.4746V31.356C64.6671 31.7208 64.9639 32.016 65.3288 32.0143H77.5511C78.1075 32.0143 78.5602 31.5649 78.5602 31.0069V29.5153C78.5602 28.9589 78.1025 28.454 77.5487 28.5079C77.5487 28.5079 65.735 29.667 65.3536 29.7101C64.9134 29.759 64.6655 30.1106 64.6655 30.4746ZM54.7713 49.7123C51.7309 49.7123 49.8172 47.4073 49.8172 44.8403L49.8147 37.4269H48.9441C48.4814 37.4278 48.105 37.053 48.105 36.5903C48.105 36.5895 48.105 36.5895 48.105 36.5887V35.3475C48.105 34.884 48.4831 34.5117 48.9458 34.5117L49.8155 34.5125L49.8139 29.9547C49.813 29.3105 50.3338 28.7881 50.9772 28.7865C50.978 28.7865 50.9788 28.7865 50.9797 28.7865H52.7076C53.3527 28.7881 53.875 29.3121 53.8742 29.958L53.875 34.5125H56.5681C57.0324 34.5125 57.4105 34.8856 57.4105 35.3491V36.5903C57.4105 37.053 57.0349 37.4278 56.573 37.4269C56.5722 37.4269 56.5722 37.4269 56.5714 37.4269H53.875L53.8767 44.2839C53.8767 45.6305 54.6925 46.5491 56.1518 46.5491L56.3973 46.5475C56.9006 46.5475 57.3093 46.9529 57.3093 47.4562V48.8036C57.3093 49.3052 56.903 49.7123 56.4014 49.7123C56.4006 49.7123 56.3989 49.7123 56.3981 49.7123H54.773H54.7713ZM26.2978 33.9785C21.3826 33.9785 18.6257 37.8249 18.6257 41.8778C18.6257 46.1968 21.5783 50 26.3293 50C29.5812 50 32.7866 48.2862 33.3927 45.4721C33.4748 45.0923 33.2186 44.5949 32.6838 44.5932H30.3606C29.9385 44.5932 29.5936 44.7947 29.3863 45.0998C28.7214 46.0749 27.7471 46.5939 26.3069 46.5939C24.2722 46.5939 22.861 44.9904 22.7549 43.2119H32.6366C33.547 43.2119 33.9532 42.7185 33.9532 41.8769C33.9541 37.9244 31.6142 33.9785 26.2978 33.9785ZM26.2978 37.1508C28.1119 37.1508 29.6782 38.4418 29.8374 40.1888H22.7864C22.9439 38.4418 24.4836 37.1508 26.2978 37.1508ZM71.3268 33.9785C66.4125 33.9785 63.6556 37.8249 63.6556 41.8778C63.6556 46.1968 66.609 50 71.3591 50C74.611 50 77.8165 48.2862 78.4226 45.4721C78.5046 45.0923 78.2484 44.5949 77.7137 44.5932H75.3896C74.9675 44.5932 74.6226 44.7947 74.4145 45.0998C73.7504 46.0749 72.7753 46.5939 71.3351 46.5939C69.3004 46.5939 67.89 44.9904 67.783 43.2119H77.6656C78.5751 43.2119 78.9822 42.7185 78.9822 41.8769C78.9831 37.9244 76.6432 33.9785 71.3268 33.9785ZM71.3268 37.1508C73.1418 37.1508 74.708 38.4418 74.8672 40.1888H67.8145C67.9729 38.4418 69.5118 37.1508 71.3268 37.1508Z" fill="white"/>
<path fill-rule="evenodd" clip-rule="evenodd" d="M46.4908 28.9921H14.481C13.7546 28.9921 13.1659 29.5808 13.1659 30.3071C13.1659 30.3079 13.1659 30.3088 13.1659 30.3096L13.2762 42.881C13.2762 42.881 6.37858 30.4223 6.01874 29.7864C5.68128 29.1886 4.95495 28.6372 3.95003 28.6372H1.31751C0.589519 28.6372 0 29.2267 0 29.9547V29.9555L0.001658 48.3923C0.000828863 49.1203 0.590349 49.7098 1.31833 49.7107H3.00647C3.73445 49.709 4.32397 49.117 4.32231 48.389L4.21618 35.4652C4.21618 35.4652 11.1801 48.0482 11.4786 48.5441C11.8799 49.214 12.5598 49.7115 13.5457 49.7115H15.9643C16.6914 49.7107 17.281 49.1211 17.2801 48.3932C17.2801 48.3932 17.2801 48.3932 17.2801 48.3923L17.2793 32.1155L46.4924 32.1163C46.9883 32.1179 47.3921 31.7166 47.3937 31.2208C47.3937 31.22 47.3937 31.22 47.3937 31.2192V29.8892C47.3921 29.3934 46.9883 28.9913 46.4908 28.9921Z" fill="white"/>
<path fill-rule="evenodd" clip-rule="evenodd" d="M41.3103 36.9963C42.7024 36.9963 43.743 37.5012 44.1178 38.3735C44.2977 38.7922 44.6468 38.8735 45.126 38.8735H47.0397C47.3556 38.8735 47.7196 38.6015 47.7196 38.1878C47.7196 35.9632 45.0663 33.9766 41.3078 33.9766C37.4216 33.9766 34.8687 35.828 34.8687 38.7781C34.8687 41.0342 36.6522 42.3774 38.8444 42.9504C39.8436 43.2115 41.5499 43.6327 42.3799 43.8516C43.2754 44.0863 44.0763 44.3599 44.0763 45.1269C44.0763 46.3374 42.8003 46.7495 41.4065 46.7495C40.0857 46.7495 38.7707 46.16 38.3934 45.2181C38.1753 44.6725 37.7923 44.5937 37.2127 44.5937H35.2659C34.9268 44.5937 34.5354 44.8847 34.5354 45.3283V45.5796C34.5354 47.7328 37.4241 49.9881 41.4098 49.9881C44.2355 49.9881 48.1731 48.8132 48.1731 45.0232C48.1731 42.8285 46.7047 41.3095 44.3151 40.7017C43.3807 40.4646 41.1345 39.8933 40.6453 39.7673C39.7747 39.5418 38.9614 39.2582 38.9614 38.5111C38.9614 37.3802 40.0069 36.9963 41.3103 36.9963Z" fill="white"/>
<path fill-rule="evenodd" clip-rule="evenodd" d="M62.4079 29.9821C62.4087 29.3213 61.8739 28.7848 61.2131 28.784H61.2122L59.4412 28.7831C58.7795 28.784 58.2439 29.3221 58.2447 29.9837V29.9846L58.2456 48.5126C58.2439 49.1734 58.7787 49.7098 59.4387 49.7115C59.4395 49.7115 59.4404 49.7115 59.4412 49.7115H61.2122C61.8739 49.7098 62.4087 49.1726 62.407 48.5109V29.9821H62.4079ZM64.6656 30.4746V31.356C64.6673 31.7208 64.9641 32.016 65.3289 32.0143H77.5513C78.1076 32.0143 78.5603 31.5649 78.5603 31.0069V29.5153C78.5603 28.9589 78.1027 28.454 77.5488 28.5079C77.5488 28.5079 65.7352 29.667 65.3538 29.7101C64.9135 29.759 64.6656 30.1106 64.6656 30.4746ZM54.7715 49.7123C51.731 49.7123 49.8173 47.4073 49.8173 44.8403L49.8149 37.4269H48.9443C48.4816 37.4278 48.1052 37.053 48.1052 36.5903C48.1052 36.5895 48.1052 36.5895 48.1052 36.5887V35.3475C48.1052 34.884 48.4833 34.5117 48.9459 34.5117L49.8157 34.5125L49.814 29.9547C49.8132 29.3105 50.3339 28.7881 50.9773 28.7865C50.9781 28.7865 50.979 28.7865 50.9798 28.7865H52.7077C53.3528 28.7881 53.8752 29.3121 53.8743 29.958L53.8752 34.5125H56.5682C57.0325 34.5125 57.4106 34.8856 57.4106 35.3491V36.5903C57.4106 37.053 57.035 37.4278 56.5732 37.4269C56.5724 37.4269 56.5724 37.4269 56.5715 37.4269H53.8752L53.8768 44.2839C53.8768 45.6305 54.6927 46.5491 56.152 46.5491L56.3974 46.5475C56.9007 46.5475 57.3095 46.9529 57.3095 47.4562V48.8036C57.3095 49.3052 56.9032 49.7123 56.4016 49.7123C56.4007 49.7123 56.3991 49.7123 56.3982 49.7123H54.7731H54.7715ZM33.9542 41.8769C33.9542 37.9253 31.6144 33.9785 26.2988 33.9785C21.3836 33.9785 18.6267 37.8249 18.6267 41.8778C18.6267 46.1968 21.5793 50 26.3303 50C29.5822 50 32.7876 48.2862 33.3937 45.4721C33.4758 45.0923 33.2196 44.5949 32.6848 44.5932H30.3607C29.9387 44.5932 29.5938 44.7947 29.3865 45.0998C28.7215 46.0749 27.7473 46.5939 26.307 46.5939C24.2723 46.5939 22.8611 44.9904 22.755 43.2119H32.6367C33.5471 43.2119 33.9542 42.7177 33.9542 41.8769ZM22.7857 40.188C22.944 38.441 24.4838 37.15 26.2988 37.15C28.1129 37.15 29.6792 38.441 29.8384 40.188H22.7857ZM78.9832 41.8769C78.9832 37.9253 76.6434 33.9785 71.3269 33.9785C66.4126 33.9785 63.6557 37.8249 63.6557 41.8778C63.6557 46.1968 66.6091 50 71.3593 50C74.6112 50 77.8166 48.2862 78.4227 45.4721C78.5048 45.0923 78.2486 44.5949 77.7138 44.5932H75.3897C74.9677 44.5932 74.6228 44.7947 74.4146 45.0998C73.7505 46.0749 72.7754 46.5939 71.3352 46.5939C69.3005 46.5939 67.8901 44.9904 67.7832 43.2119H77.6657C78.5761 43.2119 78.9832 42.7177 78.9832 41.8769ZM67.8147 40.188C67.973 38.441 69.5119 37.15 71.3269 37.15C73.1419 37.15 74.7082 38.441 74.8674 40.188H67.8147Z" fill="#AB2630"/>
<path fill-rule="evenodd" clip-rule="evenodd" d="M46.4908 28.9921H14.481C13.7546 28.9921 13.1659 29.5808 13.1659 30.3071C13.1659 30.3079 13.1659 30.3088 13.1659 30.3096L13.2762 42.881C13.2762 42.881 6.37858 30.4223 6.01874 29.7864C5.68128 29.1886 4.95495 28.6372 3.95003 28.6372H1.31751C0.589519 28.6372 0 29.2267 0 29.9547V29.9555L0.001658 48.3923C0.000828863 49.1203 0.590349 49.7098 1.31833 49.7107H3.00647C3.73445 49.709 4.32397 49.117 4.32231 48.389L4.21618 35.4652C4.21618 35.4652 11.1801 48.0482 11.4786 48.5441C11.8799 49.214 12.5598 49.7115 13.5457 49.7115H15.9643C16.6914 49.7107 17.281 49.1211 17.2801 48.3932C17.2801 48.3932 17.2801 48.3932 17.2801 48.3923L17.2793 32.1155L46.4924 32.1163C46.9883 32.1179 47.3921 31.7166 47.3937 31.2208C47.3937 31.22 47.3937 31.22 47.3937 31.2192V29.8892C47.3921 29.3934 46.9883 28.9913 46.4908 28.9921Z" fill="#AB2630"/>
<path fill-rule="evenodd" clip-rule="evenodd" d="M41.3103 36.9963C42.7024 36.9963 43.743 37.5012 44.1178 38.3735C44.2977 38.7922 44.6468 38.8735 45.126 38.8735H47.0397C47.3556 38.8735 47.7196 38.6015 47.7196 38.1878C47.7196 35.9632 45.0663 33.9766 41.3078 33.9766C37.4216 33.9766 34.8687 35.828 34.8687 38.7781C34.8687 41.0342 36.6522 42.3774 38.8444 42.9504C39.8436 43.2115 41.5499 43.6327 42.3799 43.8516C43.2754 44.0863 44.0763 44.3599 44.0763 45.1269C44.0763 46.3374 42.8003 46.7495 41.4065 46.7495C40.0857 46.7495 38.7707 46.16 38.3934 45.2181C38.1753 44.6725 37.7923 44.5937 37.2127 44.5937H35.2659C34.9268 44.5937 34.5354 44.8847 34.5354 45.3283V45.5796C34.5354 47.7328 37.4241 49.9881 41.4098 49.9881C44.2355 49.9881 48.1731 48.8132 48.1731 45.0232C48.1731 42.8285 46.7047 41.3095 44.3151 40.7017C43.3807 40.4646 41.1345 39.8933 40.6453 39.7673C39.7747 39.5418 38.9614 39.2582 38.9614 38.5111C38.9614 37.3802 40.0069 36.9963 41.3103 36.9963ZM80.3562 48.9334H79.9226V46.9045H80.6804C81.2036 46.9045 81.5129 47.0538 81.5129 47.5173C81.5129 47.8904 81.2932 48.0255 81.0245 48.0463L81.5427 48.9334H81.0287L80.5602 48.0811H80.3554V48.9334H80.3562ZM80.7393 47.737C80.9341 47.737 81.0486 47.6964 81.0486 47.4717C81.0486 47.2627 80.8239 47.2478 80.6605 47.2478H80.3554V47.737H80.7393ZM80.6696 49.8049C79.668 49.8049 78.7751 49.1117 78.7751 47.9202C78.7751 46.7296 79.668 46.0364 80.6696 46.0364C81.6671 46.0364 82.5601 46.7296 82.5601 47.9202C82.5601 49.1125 81.6671 49.8049 80.6696 49.8049ZM80.6696 46.475C79.9226 46.475 79.319 47.0538 79.319 47.9211C79.319 48.7892 79.9226 49.3729 80.6696 49.3679V49.3737C81.3985 49.3737 82.0162 48.79 82.0162 47.9219C82.0153 47.0538 81.3985 46.475 80.6696 46.475Z" fill="#AB2630"/>
</svg>
