<svg width="21" height="21" viewBox="0 0 21 21" fill="none" xmlns="http://www.w3.org/2000/svg">
<path d="M4.06745 13.3929C6.05468 15.7684 8.44687 17.6387 11.1772 18.9622C12.2168 19.4548 13.607 20.0393 15.1559 20.1395C15.2519 20.1437 15.3437 20.1478 15.4397 20.1478C16.4793 20.1478 17.3143 19.7888 17.9948 19.0498C17.9989 19.0457 18.0073 19.0373 18.0115 19.029C18.2536 18.7367 18.5291 18.4737 18.8172 18.194C19.0134 18.0061 19.2138 17.8099 19.4059 17.6095C20.2951 16.6827 20.2951 15.5054 19.3975 14.6078L16.8884 12.0987C16.4626 11.6562 15.9532 11.4224 15.4189 11.4224C14.8845 11.4224 14.371 11.6562 13.9326 12.0945L12.438 13.5891C12.3003 13.5098 12.1583 13.4388 12.0247 13.372C11.8577 13.2885 11.7033 13.2092 11.5655 13.1216C10.2045 12.2574 8.96872 11.1302 7.78724 9.68148C7.19024 8.92583 6.78945 8.29125 6.50974 7.64415C6.90217 7.28929 7.26956 6.91773 7.62442 6.55452C7.74967 6.4251 7.87909 6.29567 8.00851 6.16625C8.45939 5.71537 8.70153 5.19351 8.70153 4.66331C8.70153 4.1331 8.46357 3.61125 8.00851 3.16036L6.7644 1.91626C6.61828 1.77014 6.48051 1.62819 6.33857 1.48207C6.06303 1.19818 5.77496 0.905943 5.49107 0.642927C5.06106 0.221267 4.55591 0 4.02153 0C3.49132 0 2.98199 0.221267 2.53528 0.647102L0.973884 2.2085C0.406104 2.77628 0.0846406 3.46513 0.017843 4.26252C-0.0614792 5.26031 0.122214 6.32072 0.598147 7.6024C1.32875 9.58546 2.43091 11.4266 4.06745 13.3929ZM1.03651 4.35019C1.0866 3.79494 1.29952 3.33153 1.70031 2.93075L3.25335 1.3777C3.49549 1.14391 3.76268 1.02284 4.02153 1.02284C4.27619 1.02284 4.53503 1.14391 4.773 1.38605C5.05271 1.64489 5.31573 1.91626 5.59962 2.20432C5.74156 2.35044 5.88768 2.49656 6.0338 2.64686L7.27791 3.89096C7.53675 4.1498 7.67035 4.41282 7.67035 4.67166C7.67035 4.9305 7.53675 5.19351 7.27791 5.45236C7.14849 5.58178 7.01907 5.71537 6.88965 5.84479C6.50139 6.23723 6.13818 6.60879 5.73739 6.96365C5.72904 6.972 5.72486 6.97618 5.71652 6.98453C5.37 7.33104 5.42428 7.66085 5.50777 7.91134C5.51195 7.92387 5.51612 7.93222 5.5203 7.94474C5.84176 8.71709 6.28847 9.45186 6.98567 10.3286C8.23812 11.8733 9.55738 13.0715 11.0102 13.9941C11.1897 14.111 11.3818 14.2028 11.5613 14.2947C11.7283 14.3782 11.8828 14.4575 12.0205 14.5452C12.0372 14.5535 12.0498 14.5619 12.0665 14.5702C12.2042 14.6412 12.3378 14.6746 12.4714 14.6746C12.8054 14.6746 13.0225 14.4617 13.0935 14.3907L14.6549 12.8293C14.897 12.5872 15.16 12.4578 15.4189 12.4578C15.7362 12.4578 15.995 12.654 16.1578 12.8293L18.6753 15.3426C19.1762 15.8436 19.1721 16.3863 18.6627 16.9165C18.4874 17.1044 18.3037 17.2839 18.1075 17.4718C17.8152 17.7556 17.5105 18.0479 17.2349 18.3777C16.7548 18.8954 16.1829 19.1375 15.4439 19.1375C15.3729 19.1375 15.2978 19.1333 15.2268 19.1292C13.8575 19.0415 12.5841 18.5071 11.6281 18.0521C9.03135 16.7954 6.75188 15.0128 4.86067 12.75C3.30345 10.8755 2.25556 9.1304 1.56254 7.26007C1.13253 6.11198 0.969709 5.18934 1.03651 4.35019Z" fill="white"/>
</svg>
