<svg width="62" height="63" viewBox="0 0 62 63" fill="none" xmlns="http://www.w3.org/2000/svg">
<path fill-rule="evenodd" clip-rule="evenodd" d="M60.9327 35.8172C61.2182 36.2725 61.5987 36.755 61.5444 37.3259C61.4016 37.8967 60.858 38.2229 60.423 38.5695C60.0357 38.8821 59.5396 39.2151 59.492 39.7588C59.4784 40.3297 59.7978 40.8394 59.9745 41.3627C60.1512 41.7976 60.3415 42.3617 60.0153 42.7762C59.5192 43.3743 58.6968 43.5306 58.1056 44.0131C57.9085 44.183 57.7046 44.3937 57.6842 44.6655C57.5823 45.4946 58.0512 46.2762 57.9697 47.1053C57.9357 47.4111 57.725 47.6761 57.4668 47.8189C56.8415 48.1722 56.094 48.2334 55.4824 48.6004C55.1901 48.7635 55.0338 49.0829 54.9998 49.4023C54.9319 50.0615 55.0678 50.7207 54.9727 51.3799C54.9251 51.679 54.7416 51.9712 54.4562 52.1003C53.6882 52.4605 52.764 52.2702 52.0232 52.6916C51.5271 53.0518 51.4999 53.7246 51.4252 54.2818C51.3368 54.7779 51.3164 55.3692 50.9019 55.7226C50.4193 56.0488 49.8009 55.9197 49.2572 55.9265C48.7407 55.9129 48.1019 55.8517 47.7417 56.3002C47.2592 56.9594 47.2592 57.8429 46.8039 58.5157C46.6544 58.7536 46.3825 58.9031 46.1039 58.9167C45.3496 58.9575 44.636 58.5905 43.8816 58.6109C43.6438 58.6109 43.3991 58.6992 43.236 58.8759C42.6312 59.4604 42.502 60.371 41.87 60.9283C41.5574 61.2205 41.0817 61.1526 40.7147 61.0234C40.1234 60.8332 39.573 60.4866 38.9409 60.4322C38.6079 60.3982 38.3089 60.5885 38.0847 60.8264C37.5885 61.3089 37.2895 61.9953 36.6779 62.369C36.3857 62.5593 36.0051 62.4982 35.7061 62.3622C35.0333 62.0632 34.4896 61.4788 33.7556 61.3428C33.2459 61.2953 32.8517 61.6962 32.4984 61.9953C32.0498 62.3758 31.6353 62.9059 31.0032 62.9467C30.4052 62.9059 29.9906 62.4234 29.5761 62.0564C29.2091 61.7506 28.8285 61.3428 28.3188 61.3361C27.3946 61.4516 26.7897 62.3215 25.8859 62.4846C25.6208 62.5389 25.3626 62.4234 25.1655 62.2671C24.5742 61.7982 24.2684 61.0642 23.6636 60.6089C23.3646 60.3846 22.9636 60.405 22.6238 60.5137C22.0869 60.6836 21.584 60.9487 21.0403 61.0982C20.7345 61.1662 20.3811 61.1526 20.1297 60.9283C19.4909 60.3642 19.3617 59.4264 18.7365 58.8487C18.587 58.6924 18.3763 58.6177 18.1656 58.6109C17.3569 58.5701 16.589 59.0118 15.7803 58.9031C15.4133 58.8487 15.1686 58.5429 15.0259 58.2235C14.7541 57.639 14.6793 56.9798 14.3395 56.4226C14.2104 56.1983 13.9861 56.0352 13.7347 55.974C12.9463 55.8109 12.124 56.0828 11.3425 55.8517C11.0706 55.7634 10.8804 55.5255 10.7852 55.2605C10.5406 54.5944 10.6153 53.8537 10.3571 53.1877C10.2551 52.8887 10.0037 52.6576 9.71145 52.5624C9.06583 52.3382 8.37264 52.3925 7.72703 52.1751C7.40761 52.0731 7.12898 51.8353 7.06102 51.4955C6.91151 50.8091 7.08141 50.0955 6.99986 49.4023C6.96588 49.0965 6.82996 48.7907 6.56491 48.6208C5.9193 48.213 5.11057 48.179 4.46496 47.7713C4.2203 47.6354 4.07079 47.3771 4.03001 47.1053C3.94846 46.2422 4.46496 45.4199 4.29506 44.55C4.11157 44.0335 3.56109 43.782 3.10576 43.5442C2.69121 43.3267 2.24947 43.116 1.95045 42.7355C1.78055 42.5112 1.79414 42.2122 1.83491 41.9539C1.98443 41.3355 2.31063 40.7782 2.46694 40.1666C2.5281 39.8879 2.5417 39.5617 2.3582 39.3171C1.87569 38.6307 1.0194 38.3317 0.570862 37.6181C0.333003 37.2443 0.48931 36.7822 0.686393 36.4288C1.0058 35.8375 1.50191 35.3211 1.60385 34.6347C1.60385 34.1182 1.20289 33.7308 0.890273 33.3706C0.516494 32.9561 0.0339799 32.5347 0 31.9435C0.0339799 31.3454 0.516494 30.9309 0.890273 30.5231C1.19609 30.1493 1.59705 29.7687 1.60385 29.2522C1.48832 28.3552 0.666006 27.7571 0.468922 26.8872C0.400963 26.6222 0.48931 26.3504 0.645618 26.1397C1.12134 25.5145 1.90287 25.2086 2.3582 24.5698C2.67082 24.1077 2.43976 23.5436 2.24947 23.0815C2.05918 22.5582 1.75336 22.0349 1.82132 21.4505C1.8621 21.2126 2.032 21.0291 2.20869 20.8796C2.75237 20.4243 3.47954 20.2544 3.99603 19.7719C4.16593 19.6223 4.30185 19.4321 4.32224 19.201C4.41059 18.3991 3.97565 17.6447 4.03001 16.8428C4.04361 16.5302 4.2203 16.2312 4.49214 16.0884C5.11057 15.7215 5.85134 15.6603 6.47657 15.3137C6.77559 15.1574 6.95908 14.8516 6.99986 14.5254C7.06782 13.9409 6.97267 13.3565 7.00665 12.772C7.01345 12.3982 7.14937 11.9769 7.50955 11.807C8.25032 11.4264 9.14738 11.6031 9.89494 11.2361C10.1668 11.107 10.3231 10.8216 10.4114 10.5497C10.6221 9.87691 10.5406 9.13615 10.8396 8.49053C10.9755 8.17792 11.3017 8.00122 11.6279 7.96045C12.2396 7.89928 12.858 7.99443 13.4696 7.94686C13.7958 7.92647 14.1356 7.79055 14.3191 7.50512C14.7405 6.84591 14.7609 6.01 15.1958 5.36439C15.3589 5.10614 15.6647 4.97022 15.9637 4.96342C16.6433 4.94303 17.2754 5.23526 17.9482 5.27604C18.2268 5.28963 18.5326 5.24206 18.7365 5.03818C19.3753 4.44693 19.4977 3.4819 20.1705 2.92463C20.5782 2.60522 21.1423 2.78871 21.5704 2.96541C22.1005 3.1489 22.6102 3.46831 23.1811 3.44112C23.4733 3.44112 23.718 3.25763 23.915 3.05375C24.3636 2.60522 24.6626 2.02076 25.1655 1.61301C25.3626 1.4567 25.6208 1.34796 25.8859 1.40233C26.7965 1.55864 27.3946 2.43532 28.3256 2.55085C28.8217 2.53726 29.1887 2.15668 29.5421 1.85766C29.9023 1.54505 30.2353 1.15768 30.6974 0.994572C30.9829 0.87904 31.3023 0.960592 31.5605 1.1101C31.9683 1.34796 32.2673 1.71495 32.6343 2.00717C32.9401 2.27222 33.3003 2.57124 33.7284 2.54405C34.4488 2.42852 34.9721 1.87125 35.6109 1.56543C35.9371 1.40233 36.3517 1.30039 36.6847 1.51107C37.3915 1.9596 37.6905 2.81589 38.3701 3.29841C38.6351 3.4819 38.9817 3.46831 39.2807 3.40035C39.8516 3.23724 40.3817 2.93822 40.9594 2.78871C41.2652 2.72075 41.6254 2.72755 41.87 2.95181C42.5088 3.52268 42.638 4.45372 43.2632 5.03818C43.4127 5.18089 43.6234 5.26245 43.8273 5.26924C44.6564 5.31681 45.4447 4.84789 46.2738 4.99061C46.7291 5.09255 46.9534 5.53428 47.0825 5.93525C47.3 6.46533 47.3815 7.06338 47.7145 7.5391C47.8844 7.79055 48.1767 7.91288 48.4689 7.94006C49.1009 8.00802 49.7397 7.89249 50.3718 7.96045C50.6844 8.00122 50.997 8.15753 51.1397 8.44976C51.5203 9.21091 51.33 10.1216 51.731 10.8759C51.9552 11.2837 52.4513 11.3856 52.8727 11.4604C53.4164 11.5555 53.994 11.5487 54.4901 11.807C54.7824 11.9497 54.9455 12.2555 54.9862 12.5681C55.0338 13.139 54.9591 13.7166 54.9795 14.2875C54.9862 14.6477 55.1154 15.0554 55.4416 15.2593C56.0804 15.6739 56.8959 15.7011 57.5483 16.1088C57.7862 16.2515 57.9357 16.5098 57.9697 16.7816C58.0512 17.6447 57.5483 18.4534 57.6978 19.3097C57.8609 19.8262 58.4046 20.0777 58.8464 20.3155C59.3289 20.5738 59.9269 20.8116 60.1512 21.3553C60.3007 21.9466 59.9677 22.497 59.7706 23.0339C59.5871 23.4961 59.3425 24.0465 59.6143 24.5222C60.0764 25.2426 60.9803 25.5348 61.4356 26.262C61.6259 26.561 61.558 26.9348 61.422 27.2406C61.1298 27.8727 60.6133 28.3892 60.423 29.0755C60.3007 29.5309 60.6269 29.9454 60.8987 30.2716C61.2997 30.7745 61.9045 31.1959 61.9997 31.8755C62.0133 32.4464 61.5715 32.8745 61.2114 33.2619C60.8784 33.6492 60.4502 34.0298 60.3958 34.5667C60.4094 35.0356 60.7017 35.4298 60.9327 35.8172ZM58.5473 29.7687C58.1804 24.9844 56.5221 20.3087 53.8037 16.3603C51.8329 13.4788 49.3184 10.9779 46.4301 9.03421C41.8224 5.90127 36.2429 4.22266 30.6702 4.3246C25.2606 4.35178 19.8714 6.07117 15.4201 9.13615C13.2793 10.5905 11.3629 12.3574 9.71145 14.3487C9.13379 15.0419 8.59011 15.7622 8.09401 16.5098C5.70182 20.0165 4.17273 24.0941 3.60187 28.294C3.58148 28.5455 3.5407 28.7969 3.52032 29.0484C3.3776 30.36 3.36401 31.6784 3.39119 32.99C3.49313 35.8647 4.0572 38.719 5.04941 41.4238C6.73481 46.0451 9.69786 50.1974 13.5036 53.31C17.4725 56.5789 22.3724 58.6992 27.4693 59.3448C29.712 59.6303 31.9887 59.6371 34.2381 59.3856C36.1274 59.1681 37.9895 58.7332 39.7904 58.1419C44.2894 56.6264 48.3874 53.9284 51.5475 50.3877C53.7086 47.9956 55.4348 45.2228 56.6445 42.2326C57.8541 39.2151 58.5405 35.9803 58.6153 32.7318C58.6221 31.7464 58.6357 30.7542 58.5473 29.7687Z" fill="#AB2630"/>
<path d="M33.9255 6.56748C33.9119 6.95485 33.8779 7.34222 33.8507 7.72959C33.6061 7.70241 33.3614 7.68882 33.11 7.69561C33.0284 8.47035 33.0012 9.2451 32.9401 10.0198C32.9129 10.2917 32.9536 10.5839 32.8449 10.8354C32.5187 10.8354 32.1993 10.7742 31.8731 10.7606C31.8867 9.71402 32.0294 8.67423 32.0362 7.62086C31.7983 7.58688 31.5129 7.64124 31.309 7.51212C31.2954 7.14514 31.3702 6.78495 31.3702 6.41797C32.2197 6.43156 33.076 6.51991 33.9255 6.56748Z" fill="#AB2630"/>
<path d="M42.7534 11.2027C42.5427 11.6173 42.2709 12.0047 42.101 12.4464C42.2958 12.5551 42.4906 12.6616 42.6855 12.7658C42.5699 13.1736 42.3321 13.5337 42.1078 13.8871C41.5709 13.6017 41.0204 13.3231 40.5107 12.9901C41.2039 11.7328 41.8835 10.4688 42.6107 9.2251C42.9301 9.3882 43.2427 9.5513 43.5418 9.74159C43.3107 10.2445 43.0049 10.7134 42.7534 11.2027Z" fill="#AB2630"/>
<path fill-rule="evenodd" clip-rule="evenodd" d="M18.6684 14.6281C18.3354 15.1174 17.8257 15.4912 17.2413 15.6135C16.7928 15.6815 16.317 15.6611 15.9093 15.4572C15.2501 15.131 14.7404 14.4854 14.5977 13.7582C14.4413 13.0786 14.686 12.3379 15.1821 11.8622C15.5015 11.5563 15.8889 11.3253 16.317 11.2301C16.752 11.1758 17.2141 11.1826 17.6151 11.3864C18.1587 11.6379 18.5801 12.1204 18.8248 12.6641C19.0898 13.2893 19.049 14.0505 18.6684 14.6281ZM17.8461 13.4252C17.8529 12.7728 17.1597 12.1816 16.5073 12.3719C16.0588 12.4874 15.7122 12.9019 15.685 13.3641C15.6782 13.8602 16.0384 14.3291 16.5073 14.4786C17.1529 14.6757 17.8937 14.098 17.8461 13.4252Z" fill="#AB2630"/>
<path d="M29.1548 14.1247C26.9189 14.349 24.7238 15.0082 22.7258 16.048C19.3074 17.815 16.4939 20.7236 14.8424 24.2032C13.9658 26.0313 13.3949 28.0157 13.1842 30.0341C12.9056 32.6913 13.2114 35.4029 14.1085 37.9175C15.0055 40.4727 16.5007 42.8106 18.4239 44.7134C19.9394 46.2017 21.7268 47.4114 23.6568 48.2949C23.9015 48.3969 24.1529 48.4784 24.3772 48.6075C24.7238 48.8114 24.7442 49.3619 24.4316 49.5997C24.2209 49.7832 23.9083 49.7425 23.6704 49.6405C21.3326 48.6551 19.1715 47.2279 17.3909 45.4134C15.5696 43.5921 14.1492 41.3834 13.191 38.9912C11.9609 35.8447 11.56 32.3787 12.0765 29.0351C12.6269 25.3925 14.258 21.9129 16.7181 19.1742C18.92 16.7004 21.7743 14.8315 24.9073 13.7849C26.1373 13.3908 27.3878 13.0985 28.6654 12.9422C28.9577 12.9151 29.3247 12.8607 29.5285 13.1257C29.8547 13.4519 29.6237 14.0976 29.1548 14.1247Z" fill="#AB2630"/>
<path d="M49.8756 35.1176C49.162 39.3786 46.9397 43.3543 43.7184 46.2222C40.9388 48.7299 37.4049 50.3881 33.6943 50.8978C33.4361 50.9318 33.1439 51.0066 32.9128 50.8367C32.505 50.558 32.6342 49.8173 33.1371 49.7357C36.0186 49.3891 38.8117 48.3289 41.1903 46.6571C43.2223 45.2368 44.9621 43.3951 46.2601 41.2815C47.6533 39.0117 48.5435 36.4292 48.829 33.7788C48.9377 32.8477 48.9105 31.9167 48.8969 30.9856C48.8086 29.341 48.4892 27.7168 47.9591 26.1605C47.8232 25.8275 48.0338 25.4537 48.3668 25.3518C48.6591 25.277 48.9989 25.4129 49.1076 25.7051C50.1338 28.7158 50.4192 31.9846 49.8756 35.1176Z" fill="#AB2630"/>
<path fill-rule="evenodd" clip-rule="evenodd" d="M11.5327 41.8864C11.1453 42.3349 10.5065 42.5728 9.92204 42.4436C9.35118 42.2941 9.07934 41.7097 8.88905 41.2068C8.37935 41.2747 7.958 41.6077 7.4619 41.7301C7.31239 41.4242 7.18326 41.1116 7.05414 40.7922C7.91723 40.3777 8.8075 40.0379 9.67059 39.6437C10.1191 39.4534 10.5609 39.2427 11.023 39.0864C11.2541 39.5893 11.4851 40.099 11.6822 40.6155C11.8385 41.0301 11.8181 41.533 11.5327 41.8864ZM10.6764 41.0709C10.6288 40.8398 10.5133 40.6291 10.3978 40.432C10.2143 40.5 10.0376 40.5747 9.86767 40.6631C9.92884 40.8738 9.99 41.0912 10.1191 41.2679C10.2822 41.499 10.6764 41.3223 10.6764 41.0709Z" fill="#AB2630"/>
<path d="M54.9046 40.7783C54.8842 40.8939 54.8571 41.0162 54.8027 41.1249C54.4493 41.9133 54.1095 42.7084 53.7493 43.4967C53.2872 43.3744 52.8658 43.1162 52.4173 42.9463C51.5474 42.5521 50.6707 42.1783 49.8008 41.791C49.9096 41.4036 50.1067 41.0502 50.2562 40.6832C50.4872 40.1871 50.6843 39.6706 50.9222 39.1813C50.9562 39.0522 51.0989 39.1133 51.1872 39.1405C51.4591 39.2561 51.7241 39.3784 51.9959 39.5007C51.7717 40.0988 51.4727 40.6696 51.2484 41.2677C51.3979 41.3628 51.5678 41.4444 51.7445 41.4851C51.9688 41.0094 52.1726 40.5133 52.3901 40.0308C52.6891 40.1327 52.9678 40.2754 53.2532 40.4046C53.1105 40.9279 52.7911 41.3832 52.6552 41.9065C52.8115 41.9812 52.9678 42.0424 53.1309 42.1036C53.4027 41.5327 53.6202 40.9347 53.9124 40.3706C54.259 40.4657 54.5716 40.6424 54.9046 40.7783Z" fill="#AB2630"/>
<path d="M14.1899 44.9035C13.8909 45.1005 13.6123 45.3384 13.2793 45.4743C13.0686 45.3112 12.9666 45.053 12.8103 44.8491C12.6132 44.5365 12.4026 44.2307 12.1987 43.918C12.056 43.9996 11.9065 44.0744 11.7841 44.1831C11.7705 44.2986 11.8453 44.387 11.8929 44.4821C12.0628 44.7268 12.2327 44.9714 12.3958 45.2161C12.4728 45.3339 12.5453 45.4517 12.6132 45.5695C12.3822 45.7394 12.1443 45.9161 11.8929 46.052C11.8657 46.0452 11.8181 46.0452 11.7909 46.0384C11.4919 45.6714 11.2676 45.2433 10.9822 44.8559C10.8055 44.7336 10.6424 44.9646 10.4929 45.0326C10.7579 45.6238 11.2337 46.0928 11.5055 46.6772C11.2201 46.8947 10.9143 47.085 10.622 47.2889C10.323 46.9491 10.1123 46.5549 9.85408 46.1879C9.56185 45.7258 9.23565 45.284 8.96381 44.8151C9.91524 44.1491 10.9007 43.5239 11.8657 42.8715C12.0968 42.722 12.321 42.5589 12.5725 42.4365C13.1026 43.2656 13.687 44.054 14.1899 44.9035Z" fill="#AB2630"/>
<path fill-rule="evenodd" clip-rule="evenodd" d="M52.4241 45.7123C51.8737 45.556 51.3504 45.2977 50.7863 45.2094C50.7863 45.2501 50.7931 45.3317 50.7999 45.3657C51.228 45.6511 51.6562 45.9297 52.0775 46.2288C51.9144 46.5346 51.7105 46.8132 51.4999 47.0851C50.3106 46.2967 49.1213 45.5016 47.9388 44.7065C48.0543 44.4142 48.2582 44.1764 48.4281 43.9113C48.6592 43.5647 48.965 43.2181 49.3863 43.123C49.9436 43.0007 50.5077 43.3201 50.8271 43.7618C50.9562 43.9181 50.997 44.1832 51.228 44.224C51.8193 44.421 52.4105 44.5977 52.995 44.8016C52.8727 45.1414 52.6348 45.42 52.4241 45.7123ZM49.7737 44.1628C49.5426 44.1152 49.3727 44.3191 49.3591 44.5366C49.5358 44.6385 49.6921 44.7812 49.896 44.8152C50.1882 44.6657 50.0999 44.1968 49.7737 44.1628Z" fill="#AB2630"/>
<path d="M48.6048 50.0754C48.0339 50.1433 47.5174 49.8103 47.1233 49.4365C46.5184 48.8249 45.8456 48.2744 45.2612 47.6356C45.4605 47.4 45.6712 47.1735 45.8932 46.956C45.9612 46.8812 46.0767 46.9492 46.1311 47.0104C46.7019 47.5608 47.2864 48.0909 47.8436 48.6482C48.0135 48.7977 48.265 48.9812 48.4825 48.8385C48.6184 48.7705 48.7067 48.6346 48.7543 48.4919C48.7475 48.2948 48.6252 48.1317 48.4961 47.9958C47.8844 47.3909 47.2184 46.8269 46.6408 46.1881C46.8378 45.957 47.0553 45.7327 47.2728 45.5221C47.3815 45.4269 47.4902 45.5696 47.5786 45.6308C48.009 46.0567 48.444 46.4758 48.8834 46.888C49.298 47.2754 49.7397 47.6832 49.896 48.2404C50.0999 49.0763 49.3931 49.9055 48.6048 50.0754Z" fill="#AB2630"/>
<path fill-rule="evenodd" clip-rule="evenodd" d="M44.6563 53.5483C44.3165 53.7182 43.9971 53.9425 43.6301 54.0512C43.4262 53.9493 43.2835 53.759 43.0797 53.6503C42.9369 53.6435 42.8214 53.7522 42.6991 53.7998C42.4408 53.9425 42.1486 54.0445 41.9311 54.2483C41.8836 54.4862 41.9583 54.724 41.9447 54.9619C41.5981 55.1386 41.2787 55.3765 40.8981 55.458C40.7282 54.058 40.5651 52.6513 40.3952 51.2445C40.3884 51.129 40.3477 50.9931 40.4224 50.8843C40.6671 50.728 40.9321 50.6125 41.1904 50.4766C41.5913 50.728 41.9175 51.0814 42.2845 51.3872C42.9913 52.0125 43.6981 52.6445 44.4117 53.2629C44.5136 53.3445 44.5816 53.4464 44.6563 53.5483ZM42.2913 52.7804C42.0874 52.5833 41.8972 52.3115 41.5981 52.2843C41.5981 52.5833 41.5981 52.9027 41.7205 53.1746C41.8768 53.2085 42.0263 53.0862 42.169 53.0183C42.237 52.9639 42.4069 52.8823 42.2913 52.7804Z" fill="#AB2630"/>
<path d="M39.5933 55.9951C39.3011 56.0631 38.9409 56.2805 38.6691 56.0495C38.1594 55.6961 37.6361 55.3699 37.1264 55.0233C36.9429 54.901 36.7594 54.7515 36.5283 54.7175C36.5351 54.8194 36.5419 54.9213 36.5623 55.0165C36.7164 55.5738 36.8704 56.131 37.0244 56.6883C36.705 56.8174 36.372 56.9126 36.0322 56.9533C35.6517 55.5738 35.2371 54.201 34.8905 52.8078C35.1488 52.7466 35.4206 52.5903 35.6856 52.6719C36.44 53.1476 37.1604 53.6777 37.9283 54.1262C37.9827 53.8816 37.8875 53.6437 37.8264 53.4126C37.7108 52.9709 37.5681 52.536 37.4662 52.0942C37.7924 52.0059 38.1186 51.8768 38.4584 51.8428C38.7438 52.8486 39.0157 53.8612 39.3079 54.8738C39.3962 55.2476 39.5254 55.6145 39.5933 55.9951Z" fill="#AB2630"/>
<path d="M30.1334 10.1822C29.9635 10.6443 29.4606 10.9094 28.9849 10.9094C28.6722 10.9298 28.3324 10.9026 28.081 10.6987C27.714 10.4133 27.5849 9.91038 27.6189 9.46185C27.9315 9.46864 28.2509 9.3667 28.5703 9.40748C28.6247 9.5298 28.6722 9.65893 28.747 9.77446C28.9577 9.8764 29.2567 9.66572 29.1684 9.43466C29.1208 9.21719 28.8693 9.22399 28.6994 9.2036C28.3053 9.2036 27.8635 9.06088 27.6596 8.6939C27.4422 8.33371 27.3946 7.88518 27.4626 7.47742C27.5169 7.02209 27.8703 6.62792 28.3189 6.51919C28.747 6.41725 29.2567 6.44443 29.5965 6.76384C29.9023 7.02889 30.0246 7.44344 30.0382 7.83761C29.8751 8.00751 29.6101 7.89877 29.4062 7.95314C29.302 7.96673 29.2001 7.98032 29.1004 7.99391C29.0053 7.83761 28.9509 7.55218 28.7062 7.60654C28.414 7.59295 28.3664 8.11624 28.6654 8.14343C28.9509 8.1842 29.2567 8.17741 29.5285 8.29973C30.2217 8.60555 30.4052 9.5298 30.1334 10.1822Z" fill="#AB2630"/>
<path fill-rule="evenodd" clip-rule="evenodd" d="M23.0452 12.2418C22.7258 12.4049 22.42 12.6156 22.0734 12.6836C21.9578 12.5884 21.8627 12.4661 21.7607 12.3506C21.4685 12.038 21.2442 11.637 20.8569 11.4331C20.9248 11.8816 21.2103 12.2554 21.387 12.67C21.4209 12.7787 21.5365 12.8942 21.4753 13.0098C21.2035 13.1797 20.8977 13.3088 20.5986 13.4311C19.9666 12.1399 19.3142 10.8555 18.7297 9.54383C19.321 9.28558 19.8851 8.84384 20.5647 8.9118C21.0743 8.9118 21.4345 9.37393 21.6044 9.80887C21.7404 10.0875 21.6792 10.4001 21.7132 10.6991C22.1345 11.236 22.6442 11.6982 23.0452 12.2418ZM20.7278 10.339C20.7074 10.1555 20.5782 9.938 20.3676 9.95838C20.2384 9.95159 20.1433 10.0535 20.0482 10.1215C20.1297 10.305 20.1841 10.5021 20.3268 10.6448C20.5239 10.6856 20.6938 10.5224 20.7278 10.339Z" fill="#AB2630"/>
<path d="M13.6803 19.5399C13.6395 19.7777 13.49 20.036 13.2997 20.1991C12.4231 20.3622 11.5396 20.4981 10.6697 20.6884C10.6697 20.7224 10.6697 20.7971 10.6629 20.8379C11.2202 21.1845 11.7978 21.4971 12.3483 21.8437C12.2056 22.1563 12.0289 22.4485 11.8318 22.7272C10.5949 22.0136 9.37167 21.2796 8.1416 20.5457C8.22315 20.3282 8.33189 20.1107 8.4746 19.9272C8.90275 19.7845 9.35808 19.7573 9.78623 19.6622C10.2755 19.5467 10.7852 19.5331 11.2474 19.3428C11.1658 19.2612 11.0843 19.1865 10.9891 19.1253C10.4862 18.8195 9.97652 18.5409 9.48721 18.2282C9.64351 17.9292 9.82021 17.6438 10.0037 17.3516C10.7648 17.7661 11.492 18.235 12.2396 18.6632C12.7153 18.969 13.2318 19.2069 13.6803 19.5399Z" fill="#AB2630"/>
<path d="M46.6884 52.0319C46.4098 52.2086 46.1583 52.4192 45.8933 52.6163C45.2409 51.8008 44.636 50.9513 43.9972 50.1222C43.7865 50.2241 43.6166 50.394 43.4127 50.5096C43.3856 50.5028 43.3448 50.496 43.3176 50.4892C43.1273 50.2785 42.9778 50.0407 42.8011 49.8096C42.7535 49.7416 42.6516 49.6261 42.7603 49.5513C43.3448 49.1028 43.9428 48.6679 44.5273 48.2193C44.5952 48.165 44.704 48.063 44.7787 48.1582C44.9894 48.4164 45.1865 48.6883 45.37 48.9601C45.3292 49.2251 44.9011 49.2591 44.8739 49.531C44.969 49.728 45.1253 49.8843 45.2545 50.061C45.6758 50.6047 46.0632 51.1688 46.4913 51.7057C46.5729 51.8076 46.634 51.9163 46.6884 52.0319Z" fill="#AB2630"/>
<path fill-rule="evenodd" clip-rule="evenodd" d="M33.0556 57.3807C32.7226 57.4214 32.3828 57.4146 32.0498 57.4078C31.812 57.4282 31.6896 57.1972 31.5197 57.0816C31.2547 57.17 31.0508 57.3942 30.7654 57.435C30.3848 57.4894 29.9567 57.5234 29.6237 57.2855C29.08 56.9593 28.9916 56.1438 29.3722 55.6545C29.4878 55.5118 29.6305 55.3962 29.746 55.2535C29.6373 55.0292 29.481 54.8322 29.4334 54.5807C29.3586 54.1729 29.4334 53.704 29.7392 53.3982C29.9771 53.1468 30.3237 53.0176 30.6702 53.0312C31.0236 53.0108 31.3838 53.1196 31.6557 53.3506C32.0294 53.7108 32.1382 54.3428 31.8528 54.7914C31.71 55.036 31.4722 55.1856 31.2751 55.3758C31.3566 55.4642 31.4382 55.5593 31.5401 55.6341C31.8867 55.4914 32.0091 55.0224 32.3692 54.9273C32.5867 55.0904 32.7974 55.2875 32.9537 55.5118C32.7226 55.8108 32.41 56.0486 32.1858 56.3613C32.4712 56.7011 32.8246 57.0001 33.0556 57.3807ZM30.8469 56.368C30.7654 56.1778 30.6023 56.0486 30.4664 55.9127C30.1877 55.9807 30.1334 56.3952 30.3848 56.5244C30.5547 56.5787 30.7858 56.5583 30.8469 56.368ZM30.6295 54.0166C30.3984 54.0778 30.3712 54.3972 30.5275 54.5467C30.6159 54.703 30.8605 54.6623 30.9149 54.4992C31.0984 54.3021 30.9013 53.9283 30.6295 54.0166Z" fill="#AB2630"/>
<path d="M26.7353 11.148C26.1441 11.3043 25.5596 11.481 24.9684 11.6373C24.615 11.7324 24.2684 11.8684 23.8946 11.9091C23.5208 10.5228 23.1131 9.15677 22.7461 7.76359C23.4597 7.54612 24.1936 7.37622 24.914 7.15875C25.1383 7.09759 25.3625 7.00244 25.6004 7.00244C25.7091 7.31506 25.8043 7.63447 25.8587 7.96067C25.8926 8.06941 25.7635 8.083 25.6888 8.11019C25.1451 8.2597 24.6014 8.40921 24.0577 8.56552C24.0781 8.74221 24.1257 8.90532 24.1732 9.07521C24.7169 9.02764 25.2198 8.7626 25.7635 8.70144C25.8451 9.00046 25.9402 9.29269 25.9946 9.5985C25.5868 9.72763 25.1791 9.83636 24.7713 9.9451C24.6694 9.97908 24.5538 10.0063 24.4791 10.081C24.4995 10.2373 24.5402 10.38 24.5878 10.5296C24.8664 10.5296 25.1247 10.4004 25.4033 10.3665C25.7499 10.2441 26.1101 10.1286 26.4839 10.0878C26.5586 10.4412 26.7081 10.781 26.7353 11.148Z" fill="#AB2630"/>
<path fill-rule="evenodd" clip-rule="evenodd" d="M39.9672 12.6226C39.5934 12.5207 39.2196 12.3916 38.8594 12.2557C38.8254 12.0246 38.8594 11.7799 38.7847 11.5557C38.6963 11.4537 38.5536 11.4333 38.4313 11.379C38.1866 11.3042 37.9488 11.1819 37.6905 11.1411C37.3779 11.0935 37.3031 11.5421 37.0381 11.5964C36.6779 11.5285 36.3449 11.3722 35.9915 11.2634C36.0255 11.1683 36.0595 11.0799 36.1274 11.0052C36.9112 10.0809 37.6928 9.15442 38.472 8.22564C38.6148 8.06254 38.7439 7.87904 38.9138 7.73633C39.2332 7.73633 39.5322 7.91302 39.8312 8.02176C39.9264 8.94601 39.8652 9.87026 39.94 10.7945C39.9468 11.4062 39.974 12.011 39.9672 12.6226ZM38.8254 9.57124C38.7394 9.5803 38.6714 9.61655 38.6216 9.67998C38.4517 9.86347 38.2546 10.047 38.2206 10.3052C38.4109 10.3868 38.608 10.4615 38.8118 10.5023C38.8322 10.4751 38.8594 10.4275 38.8798 10.4004C38.907 10.1285 38.9342 9.82949 38.8254 9.57124Z" fill="#AB2630"/>
<path d="M36.3177 19.5814C36.039 19.629 35.7672 19.4999 35.509 19.4115C35.0129 19.2212 34.4896 19.0717 33.9527 19.1193C33.1032 19.1805 32.2945 19.5678 31.6353 20.0979C31.2547 20.4105 30.9081 20.7911 30.7314 21.26C30.6906 21.362 30.677 21.5183 30.8061 21.5727C31.309 21.8649 31.9207 21.7629 32.4712 21.8785C31.5016 22.25 30.5479 22.6623 29.6101 23.1153C29.4605 23.1833 29.3178 23.2784 29.1547 23.3192C28.944 23.3328 28.7674 23.2037 28.5839 23.1221C28.2984 22.9726 27.9722 22.7687 27.9314 22.4154C27.8771 21.9668 28.1625 21.5659 28.4615 21.26C29.413 20.2474 30.2421 19.0989 30.8197 17.8349C31.1935 17.0126 31.4789 16.1155 31.411 15.198C31.3634 14.7019 31.0916 14.2534 31.1188 13.7505C31.1391 13.2204 31.6488 12.7515 32.1857 12.8262C32.709 12.8534 33.11 13.3767 33.0828 13.8796C33.0828 14.2398 32.8517 14.5388 32.6614 14.8242C32.3828 15.2252 32.1653 15.6873 32.1517 16.1834C32.1382 16.4349 32.2809 16.6796 32.4983 16.8019C32.709 16.863 32.9605 16.8359 33.1304 16.6728C33.8236 16.0271 34.4216 15.2592 34.7818 14.3757C34.8973 14.0835 35.0332 13.7709 35.3051 13.5942C35.6925 13.3495 36.2701 13.4039 36.5623 13.7709C36.9361 14.1854 36.8885 14.9126 36.4536 15.266C36.1954 15.4699 35.8691 15.5514 35.5837 15.7145C34.9653 16.0271 34.4556 16.5029 33.9731 16.9854C33.742 17.2164 33.4634 17.4747 33.4566 17.8281C33.4362 18.0931 33.7012 18.3038 33.9527 18.3038C34.4692 18.3038 34.9381 18.0455 35.3866 17.8281C35.6653 17.6989 35.9371 17.5087 36.2565 17.5358C36.7458 17.5562 37.1672 17.9844 37.1876 18.4737C37.2419 18.9902 36.8478 19.5407 36.3177 19.5814Z" fill="#AB2630"/>
<path d="M25.0568 24.0258C24.2549 24.8549 23.5821 25.8199 23.1063 26.8733C23.0452 27.0432 22.9025 27.1519 22.7597 27.2471C21.9782 27.8044 21.2375 28.4228 20.4831 29.0208C20.5103 27.7364 20.0617 26.4384 19.2123 25.4733C19.0424 25.2763 18.8181 25.1199 18.7026 24.8753C18.5598 24.5967 18.5394 24.2705 18.6074 23.9714C18.7365 23.3462 19.4637 22.9045 20.0753 23.1219C20.4627 23.2307 20.7685 23.5637 20.8705 23.951C20.986 24.2705 20.8501 24.5967 20.8025 24.9093C20.7685 25.2898 20.7006 25.6704 20.7685 26.051C20.8093 26.4316 20.8025 26.9005 21.1559 27.1452C21.4889 27.4102 22.019 27.2335 22.1821 26.8529C22.6714 25.7248 22.9704 24.5151 23.0384 23.285C23.0384 22.8977 23.1471 22.4831 23.4529 22.2249C23.9219 21.7627 24.751 21.8647 25.1315 22.3812C25.5121 22.8501 25.4849 23.5977 25.0568 24.0258Z" fill="#AB2630"/>
<path d="M45.1116 14.5389C44.9078 14.8855 44.6359 15.1913 44.3981 15.5175C43.9359 15.1845 43.4806 14.8515 43.0321 14.5049C42.869 14.3962 43.0592 14.2331 43.1272 14.1176C43.9223 13.0642 44.6835 11.9836 45.499 10.9438C45.7844 11.1545 46.0767 11.3652 46.3553 11.5827C45.9407 12.2147 45.465 12.7991 45.0301 13.4108C44.8874 13.6283 44.6631 13.8117 44.6019 14.07C44.7379 14.2535 45.0301 14.3147 45.1116 14.5389Z" fill="#AB2630"/>
<path d="M48.9107 13.8119C47.9252 14.8517 46.9466 15.8983 45.9612 16.9381C45.6758 16.6934 45.4107 16.4352 45.1457 16.1769C45.5942 15.6129 46.1311 15.1236 46.6136 14.5935C47.0146 14.1381 47.4563 13.7304 47.8505 13.2683C47.932 13.1867 48 13.0712 48.1291 13.0508C48.4078 13.2818 48.6728 13.5401 48.9107 13.8119Z" fill="#AB2630"/>
<path d="M15.0463 18.0184C14.856 18.2358 14.6657 18.4533 14.4618 18.664C13.5783 17.8824 12.6949 17.1077 11.8114 16.333C11.6279 16.1699 11.4308 16.0135 11.2745 15.8301C11.2541 15.7213 11.3561 15.6466 11.4104 15.5718C11.8386 15.1029 12.2395 14.6204 12.6745 14.165C12.9531 14.4233 13.2589 14.6611 13.5308 14.933C13.3133 15.232 13.0279 15.4835 12.824 15.7961C12.9395 15.8844 13.0279 16.0543 13.191 16.0407C13.456 15.8844 13.558 15.5174 13.8502 15.4155C14.1084 15.6126 14.3463 15.8301 14.5909 16.0543C14.4278 16.3058 14.1968 16.4961 14.0337 16.7407C13.9929 16.8087 14.0405 16.8902 14.0948 16.931C14.4075 17.2096 14.7337 17.4747 15.0463 17.7601C15.1414 17.8213 15.1142 17.9504 15.0463 18.0184Z" fill="#AB2630"/>
<path fill-rule="evenodd" clip-rule="evenodd" d="M51.398 17.0742C50.6368 18.2907 49.9097 19.5207 49.1349 20.7304C48.9174 20.5673 48.7679 20.3295 48.598 20.1188C48.5301 20.0168 48.4349 19.9285 48.4077 19.8062C48.4621 19.6023 48.6184 19.4528 48.6932 19.2625C48.734 19.1266 48.6184 19.0178 48.5505 18.9159C48.3534 18.6712 48.1699 18.413 47.9728 18.1683C47.735 18.1751 47.5175 18.2567 47.2864 18.3043C47.1573 18.2635 47.0893 18.1344 47.0078 18.0324C46.8515 17.8081 46.6476 17.6111 46.5457 17.3528C47.8981 16.9451 49.264 16.5645 50.6096 16.1499C50.7252 16.1159 50.8407 16.082 50.9562 16.0888C51.1533 16.2858 51.3096 16.5101 51.4659 16.7344C51.5475 16.8499 51.4456 16.9722 51.398 17.0742ZM49.8349 17.5227C49.5155 17.5227 49.2233 17.6586 48.9242 17.7674C48.9922 17.9305 49.0738 18.0868 49.1961 18.2159C49.2505 18.2771 49.3456 18.3994 49.4204 18.2839C49.597 18.0528 49.8009 17.8149 49.8349 17.5227Z" fill="#AB2630"/>
<path d="M55.4959 28.5317C55.394 28.6268 55.3057 28.7492 55.1629 28.7764C54.8979 28.5657 54.7416 28.2599 54.5241 28.0016C54.728 27.7162 54.9523 27.39 54.9047 27.023C54.8707 26.5065 54.429 26.0648 53.9125 26.0172C53.4232 25.9968 52.8999 26.3094 52.7708 26.7987C52.6213 27.2677 52.8523 27.8249 53.2873 28.0492C53.3688 28.1104 53.5251 28.1375 53.5115 28.2667C53.5047 28.5725 53.3824 28.8647 53.3348 29.1705C53.0154 29.2045 52.7164 29.0482 52.4582 28.8715C51.5543 28.2191 51.3028 26.8191 51.9281 25.8881C52.3698 25.256 53.1513 24.8891 53.9193 24.9298C54.6465 24.8891 55.3668 25.2968 55.727 25.9288C56.1959 26.724 56.162 27.8521 55.4959 28.5317Z" fill="#AB2630"/>
<path fill-rule="evenodd" clip-rule="evenodd" d="M9.48038 28.1449C9.41922 28.5391 10.1328 28.5051 10.0105 28.9197C9.9493 29.2323 9.90173 29.5449 9.81338 29.8575C9.69785 29.8099 9.58912 29.7624 9.48038 29.7012C8.50176 29.076 7.51634 28.4643 6.53772 27.8391C6.33385 27.6964 6.0756 27.6012 5.92609 27.3974C5.93288 27.0847 6.02803 26.7789 6.09599 26.4799C7.09499 26.276 8.1076 26.1401 9.1134 25.9566C9.6231 25.8954 10.1192 25.7527 10.6289 25.7188C10.5881 26.0993 10.5066 26.4799 10.4114 26.8469C10.2008 26.9828 9.89494 26.8945 9.71145 27.0711C9.58232 27.4177 9.53475 27.7847 9.48038 28.1449ZM8.66487 27.0983C8.35225 27.1119 8.03284 27.1323 7.74741 27.2682C7.9241 27.5537 8.25711 27.6896 8.54933 27.8119C8.63089 27.5808 8.67846 27.343 8.66487 27.0983Z" fill="#AB2630"/>
<path fill-rule="evenodd" clip-rule="evenodd" d="M47.9185 23.3402C47.9321 23.8499 47.5447 24.2441 47.1845 24.5567C46.2127 25.3654 45.2205 26.1537 44.1399 26.8197C42.5972 27.7984 40.9254 28.5595 39.206 29.1644C38.9954 29.2527 38.7303 29.2799 38.574 29.4702C38.207 29.8575 37.9352 30.3333 37.6498 30.7818C37.3032 31.3663 37.0109 31.9711 36.7663 32.6031C36.576 33.1128 36.3993 33.6565 36.4876 34.2138C36.5352 34.4176 36.7323 34.5536 36.9362 34.5807C37.4663 34.6691 38.0031 34.5672 38.5128 34.4176C39.3284 34.1594 40.1099 33.7177 40.6196 33.0177C40.9322 32.6099 41.0953 32.107 41.2788 31.6313C41.3875 31.3255 41.605 31.04 41.9312 30.9381C42.2438 30.8633 42.6108 30.8837 42.8555 31.1148C43.2564 31.441 43.338 32.0798 43.0526 32.508C42.8283 32.8546 42.4001 32.9565 42.0535 33.1332C41.6254 33.3371 41.1633 33.5546 40.905 33.9691C40.7623 34.1798 40.8167 34.5128 41.0545 34.6283C41.3264 34.7982 41.6662 34.7235 41.9652 34.7167C42.6856 34.6351 43.4195 34.5196 44.0787 34.1934C44.3506 34.0711 44.6088 33.874 44.9215 33.874C45.3224 33.84 45.703 34.1118 45.8661 34.4652C46.0632 34.9205 45.9069 35.5118 45.4719 35.7768C45.1525 36.0011 44.7312 35.9331 44.3914 35.7972C43.5758 35.505 42.6924 35.4778 41.8293 35.5526C41.5982 35.5798 41.3264 35.6137 41.1905 35.8312C40.973 36.0827 41.0749 36.47 41.3128 36.6671C41.6526 36.9389 42.0739 37.1156 42.5021 37.1632C42.8487 37.2108 43.236 37.1904 43.5351 37.4011C44.0516 37.7681 44.0991 38.6244 43.6098 39.0321C43.3652 39.27 43.005 39.304 42.6924 39.2428C42.3254 39.1341 42.0943 38.8078 41.938 38.4816C41.7273 38.0739 41.4283 37.7137 41.0342 37.469C40.1779 36.9118 39.1856 36.6059 38.1934 36.3885C37.208 36.1846 36.209 36.0759 35.2032 36.1234C34.911 36.1234 34.5848 36.1506 34.3469 35.9535C34.0071 35.7225 33.9392 35.2739 33.9459 34.8934C33.9799 34.1934 34.1634 33.507 34.2518 32.807C34.3605 32.073 34.3605 31.3323 34.3129 30.5983C34.2722 30.5915 34.1906 30.5779 34.1498 30.5711C33.9459 31.475 33.6741 32.3721 33.2052 33.1808C32.6003 34.3021 31.7508 35.3283 30.6023 35.9196C29.5014 35.1312 28.183 34.7099 26.8781 34.4244C25.6073 34.1594 24.3025 34.0303 23.018 34.1594C22.9093 34.1798 22.8141 34.2477 22.7258 34.3021C23.419 34.3837 24.119 34.4041 24.8122 34.54C26.9325 34.9341 28.9917 35.7768 30.6975 37.1088C31.1188 37.4486 31.5402 37.802 31.846 38.2506C32.1314 38.6651 32.1722 39.2496 31.9072 39.6845C31.5674 40.1534 31.0373 40.4049 30.5344 40.6496C28.7946 41.4583 26.9461 42.002 25.0772 42.3825C24.7306 42.4573 24.3704 42.4845 24.0306 42.6068C24.1122 42.6204 24.1801 42.6544 24.2549 42.6883C24.9956 43.0349 25.7908 43.2864 26.5995 43.3951C27.4966 43.4631 28.4208 43.3747 29.2431 42.9874C29.6917 42.7971 30.113 42.532 30.5683 42.3621C30.9829 42.1922 31.479 42.335 31.7644 42.6748C32.2402 43.198 32.0839 44.1495 31.445 44.4689C31.112 44.666 30.6975 44.6116 30.3577 44.4621C29.7256 44.2446 29.0461 44.0815 28.38 44.2106C28.0878 44.265 27.8839 44.5776 27.9723 44.8699C28.1082 45.2912 28.5296 45.5155 28.8558 45.7737C29.5897 46.3174 30.4256 46.7184 31.3227 46.9154C31.778 46.997 32.1586 47.3776 32.2402 47.8329C32.3897 48.4717 31.8868 49.2261 31.2004 49.2057C30.6975 49.2601 30.2761 48.8727 30.0858 48.4445L30.0654 48.4581C29.6169 47.663 28.9713 46.997 28.2577 46.4397C28.0267 46.263 27.8024 46.0524 27.5102 45.9776C27.2247 45.9028 26.9189 46.0999 26.8442 46.3786C26.7422 46.7455 26.8849 47.1193 27.0412 47.4455C27.2451 47.8941 27.6257 48.2271 27.9315 48.6008C28.1898 48.9067 28.2645 49.3416 28.1626 49.7222C28.0402 50.1571 27.6461 50.4969 27.1975 50.5377C26.6878 50.5989 26.1985 50.2115 26.0422 49.7426C25.8587 49.1513 26.2053 48.5601 26.1442 47.962C26.0558 46.9902 25.6277 46.0524 24.9277 45.366C23.9898 44.4689 22.7462 43.966 21.4957 43.6602C20.7482 43.4495 19.9598 43.3815 19.2191 43.1233C18.9404 43.0146 18.6482 42.8922 18.4443 42.668C18.2404 42.4165 18.2608 42.0359 18.4579 41.7845C18.8317 41.3224 19.4162 41.1321 19.953 40.9418C21.6045 40.3981 23.2899 39.97 24.9889 39.6098C25.6956 39.4806 26.4092 39.3107 27.1296 39.3243C27.2859 39.3175 27.449 39.3243 27.5781 39.236C27.7208 39.1273 27.714 38.8758 27.5509 38.7943C27.3742 38.7059 27.1772 38.7875 27.0005 38.835C26.0898 39.1341 25.1248 39.168 24.1733 39.2496C23.2219 39.2768 22.2637 39.2768 21.3122 39.1544C19.9326 38.9845 18.5395 38.7263 17.289 38.0943C16.691 37.7749 16.0589 37.2923 15.957 36.572C15.8822 35.9603 16.0929 35.3623 16.3444 34.8118C16.922 33.6361 17.7783 32.6371 18.6618 31.6789C20.4763 29.7964 22.5627 28.1857 24.7374 26.7314C27.1092 25.1887 29.5965 23.8227 32.2198 22.7625C33.3751 22.2732 34.5644 21.8451 35.7673 21.4917C37.4187 21.0024 39.1041 20.6218 40.8167 20.4451C41.2176 20.4043 41.6254 20.3907 42.0264 20.4043C42.0671 20.3817 42.1079 20.3568 42.1487 20.3296C41.7409 20.2344 41.3264 20.2005 40.9118 20.1733C40.6332 20.1733 40.3478 20.2276 40.0623 20.2209C40.2254 19.5141 40.7555 18.8888 41.4351 18.6306C41.7885 18.4879 42.1759 18.4811 42.5497 18.5151C43.2836 18.6306 43.9292 19.1607 44.2079 19.8471C44.3098 20.0849 44.3574 20.3432 44.4321 20.5946C45.3224 20.9344 46.2195 21.2946 47.0078 21.8451C47.4631 22.2121 47.9796 22.6946 47.9185 23.3402ZM42.7331 23.2722C42.6652 22.1849 41.4895 21.3014 40.4225 21.6208C40.0691 21.716 39.7429 21.9063 39.4983 22.1849C38.8866 22.8441 38.8187 23.9247 39.3284 24.6586C39.6953 25.2023 40.3478 25.5489 41.007 25.4877C41.7205 25.447 42.3594 24.9305 42.6176 24.2713C42.7603 23.9586 42.7399 23.6052 42.7331 23.2722Z" fill="#AB2630"/>
<path d="M54.9251 23.0067C54.2795 23.3193 53.6203 23.5979 52.9815 23.9037C52.3154 24.1892 51.6766 24.529 51.0038 24.7804C50.8951 24.5697 50.766 24.3591 50.7116 24.128C50.7388 23.9785 50.8135 23.8494 50.8747 23.7134C51.1533 23.129 51.4116 22.5377 51.6834 21.9465C51.7378 21.831 51.7786 21.7086 51.8125 21.5795C51.7038 21.5863 51.5951 21.5863 51.4931 21.6339C50.9631 21.8785 50.4398 22.13 49.8961 22.3475C49.7375 22.053 49.5971 21.7494 49.4747 21.4368C50.5825 20.8931 51.7106 20.4106 52.8251 19.8873C53.0154 19.799 53.2057 19.7174 53.4028 19.6562C53.5047 19.8873 53.7018 20.1184 53.6814 20.3766C53.362 21.0902 53.029 21.8038 52.7028 22.5174C52.6417 22.6329 52.6213 22.7552 52.6077 22.8843C53.2737 22.7008 53.8581 22.2999 54.5173 22.0824C54.6669 22.3814 54.8164 22.6873 54.9251 23.0067Z" fill="#AB2630"/>
<path d="M56.5017 32.9971C56.1348 33.0718 55.761 33.0242 55.3872 33.031C55.36 32.3922 55.4348 31.7466 55.3192 31.1146C55.1493 31.1146 54.9794 31.1146 54.8095 31.1214C54.7756 31.665 54.8231 32.2019 54.8027 32.7456C54.4901 32.7592 54.1775 32.766 53.8649 32.7524C53.8785 32.2155 53.8105 31.6854 53.8173 31.1485C53.6474 31.1282 53.4775 31.1146 53.3076 31.1418C53.2601 31.4136 53.3008 31.6922 53.2737 31.9709C53.2827 32.0479 53.2895 32.1249 53.294 32.2019C53.294 32.4942 53.3008 32.7864 53.294 33.0786C52.9271 33.0854 52.5669 33.0922 52.1999 33.0922C52.1455 32.5145 52.1931 31.9301 52.1659 31.3524C52.1795 30.9447 52.1047 30.5437 52.1251 30.1359C53.5659 30.1088 55.0134 30.0544 56.461 30.0748C56.4813 31.0466 56.5085 32.0184 56.5017 32.9971Z" fill="#AB2630"/>
<path d="M24.5946 53.2971C24.547 53.4602 24.4111 53.6437 24.4859 53.8136C24.9752 54.0038 25.4917 54.0922 25.9878 54.2621C25.913 54.5679 25.8383 54.8737 25.7295 55.166C25.2063 55.0504 24.6966 54.8669 24.1665 54.7718C24.1189 54.9349 24.0781 55.098 24.0441 55.2679C24.6422 55.4854 25.2674 55.6145 25.8655 55.8048C25.8383 56.0087 25.7839 56.2057 25.7092 56.396C25.7092 56.4459 25.7092 56.4957 25.7092 56.5455C25.6616 56.6543 25.614 56.763 25.5664 56.8717C24.6195 56.618 23.6772 56.3553 22.7393 56.0834C23.018 54.9417 23.3713 53.8136 23.6772 52.6718C23.7451 52.4204 23.8131 52.1689 23.9014 51.9175C24.8461 52.1757 25.7907 52.4408 26.7286 52.7126C26.6742 53.0864 26.5587 53.4398 26.4363 53.7864C25.8247 53.6369 25.2198 53.4262 24.5946 53.2971Z" fill="#AB2630"/>
<path d="M41.8361 24.719C41.7206 24.9637 41.4555 25.1404 41.1837 25.0656C40.8846 24.9637 40.674 24.6987 40.5584 24.42C40.3138 23.8492 40.2798 23.1967 40.4361 22.6055C40.5245 22.3676 40.64 22.1094 40.8711 21.9871C41.0681 21.8851 41.3196 21.9055 41.4827 22.055C41.7953 22.3404 41.9108 22.7686 41.9856 23.1696C42.0671 23.6861 42.0671 24.2433 41.8361 24.719Z" fill="#AB2630"/>
<path d="M11.424 23.8561C11.3084 24.1959 11.1657 24.5357 11.0298 24.8755C10.7104 24.8008 10.4046 24.6648 10.092 24.5493C9.05898 24.1484 8.01919 23.7542 6.98621 23.3464C7.10174 22.993 7.23086 22.6396 7.39396 22.3066C8.43375 22.694 9.46674 23.095 10.5065 23.4823C10.8123 23.6047 11.125 23.7134 11.424 23.8561Z" fill="#AB2630"/>
<path d="M22.2637 51.5087C21.8763 52.3446 21.4889 53.1805 21.1152 54.0164C21.319 54.1455 21.5365 54.2474 21.754 54.3562C21.6384 54.7232 21.4482 55.063 21.2986 55.4163C21.2647 55.5387 21.1287 55.4435 21.054 55.4163C20.5647 55.1853 20.0686 54.9678 19.5861 54.73C20.1501 53.4183 20.7889 52.1339 21.3598 50.8223C21.6996 50.9174 22.0054 51.1009 22.3384 51.23C22.318 51.3252 22.2977 51.4203 22.2637 51.5087Z" fill="#AB2630"/>
<path fill-rule="evenodd" clip-rule="evenodd" d="M9.79978 33.0921C8.36583 33.1057 6.93188 33.0989 5.49793 33.0853C5.49113 32.8067 5.47754 32.5212 5.50473 32.2426C5.46395 31.7941 5.5523 31.3047 5.85812 30.9581C6.2183 30.6184 6.76198 30.5504 7.2309 30.6523C7.48236 30.6999 7.68624 30.8834 7.93769 30.9242C8.33865 30.7611 8.76 30.6727 9.16776 30.5504C9.38523 30.4892 9.5959 30.4077 9.82017 30.4009C9.83376 30.7475 9.82017 31.0941 9.82017 31.4407C9.50756 31.5426 9.18815 31.631 8.86874 31.7057C8.62408 31.7669 8.37263 31.828 8.14836 31.9436C8.21632 31.9979 8.28881 32.0478 8.36583 32.0931C8.84835 32.0455 9.33086 32.0931 9.82017 32.0523C9.80658 32.3989 9.86095 32.7523 9.79978 33.0921ZM7.19013 31.7261C7.0678 31.6174 6.88431 31.5358 6.74159 31.6377C6.5581 31.7193 6.45616 32.0251 6.64645 32.1542C6.83674 32.1814 7.02703 32.161 7.21731 32.1542C7.21731 32.0115 7.2445 31.862 7.19013 31.7261Z" fill="#AB2630"/>
<path d="M8.97067 37.4887C8.56971 37.8761 7.88332 37.9236 7.43478 37.5906C7.21731 37.4207 7.04062 37.1965 6.97945 36.9246C6.78916 36.3062 7.21731 35.5926 7.84934 35.4635C8.20273 35.3955 8.59689 35.4363 8.88232 35.681C9.44639 36.0955 9.48037 37.0198 8.97067 37.4887Z" fill="#AB2630"/>
<path d="M54.4494 37.5912C53.8649 38.0329 52.9067 37.7882 52.6484 37.0951C52.3494 36.463 52.7436 35.6475 53.4164 35.4708C53.8581 35.3621 54.3746 35.4844 54.6668 35.8514C55.1086 36.3475 55.0066 37.2242 54.4494 37.5912Z" fill="#AB2630"/>
<path d="M36.6711 38.6919C36.6507 39.2016 36.6779 39.7045 36.6575 40.2142C36.576 40.3909 36.3177 40.2754 36.1682 40.2618C36.1886 39.7589 36.141 39.2492 36.1886 38.7463C36.0119 38.6647 35.808 38.6987 35.6177 38.6919C35.6177 38.5515 35.6177 38.4133 35.6177 38.2773C36.141 38.2773 36.6643 38.2773 37.1876 38.2773C37.1944 38.4133 37.1944 38.5492 37.1944 38.6919C37.0177 38.6919 36.8433 38.6919 36.6711 38.6919Z" fill="#AB2630"/>
<path d="M39.8789 40.2957C39.7293 40.3002 39.5798 40.3025 39.4303 40.3025C39.4303 39.8744 39.4099 39.4394 39.376 39.0113C39.1789 39.4326 39.0294 39.8812 38.8051 40.2957C38.6896 40.3025 38.5468 40.3365 38.4585 40.2481C38.2478 39.8404 38.1255 39.385 37.8876 38.9909C37.8604 39.4258 37.8944 39.8676 37.874 40.3025C37.7336 40.3025 37.5954 40.3025 37.4595 40.3025C37.4459 39.6297 37.4527 38.9501 37.4527 38.2773C37.6656 38.2773 37.8786 38.2773 38.0915 38.2773C38.2818 38.7462 38.4517 39.2287 38.6556 39.6909C38.8934 39.2287 39.0429 38.7258 39.3012 38.2773C39.4915 38.2705 39.6886 38.2773 39.8789 38.2705C39.8856 38.9501 39.8789 39.6229 39.8789 40.2957Z" fill="#AB2630"/>
<path fill-rule="evenodd" clip-rule="evenodd" d="M14.523 50.6867C13.4221 50.7207 12.4027 49.776 12.3211 48.6887C12.226 47.5606 13.1163 46.4732 14.2172 46.2693C15.3997 46.0247 16.6298 46.9693 16.7589 48.1518C16.922 49.4294 15.7871 50.6663 14.523 50.6867ZM14.4822 47.3839C13.823 47.4042 13.2997 48.1518 13.5036 48.777C13.6124 49.0964 13.8706 49.3547 14.1764 49.4906C14.3871 49.545 14.6114 49.5382 14.822 49.5042C15.1754 49.4023 15.4473 49.1032 15.5832 48.7634C15.8279 48.0906 15.1958 47.2955 14.4822 47.3839Z" fill="#AB2630"/>
<path fill-rule="evenodd" clip-rule="evenodd" d="M19.6675 51.9242C19.4025 52.2233 18.9811 52.3796 18.587 52.2912C18.1928 52.2301 17.8734 51.9718 17.5336 51.7815C17.2414 52.1825 16.9831 52.6106 16.6977 53.0184C16.3987 52.8553 16.1132 52.6514 15.8346 52.4543C15.9161 52.2912 16.009 52.1327 16.1132 51.9786C16.8132 50.9388 17.4928 49.8787 18.1996 48.8389C18.587 49.0767 18.9607 49.3282 19.3345 49.5796C19.7015 49.8175 20.0685 50.1437 20.1568 50.5922C20.252 51.0883 19.9937 51.5708 19.6675 51.9242ZM19.0287 50.6942C18.8316 50.5515 18.6345 50.4155 18.4171 50.3068C18.3015 50.4767 18.1996 50.6466 18.1112 50.8301C18.3491 50.966 18.5802 51.2514 18.886 51.1495C19.0423 51.0476 19.0355 50.8573 19.0287 50.6942Z" fill="#AB2630"/>
</svg>
