<svg width="32" height="32" viewBox="0 0 32 32" fill="none" xmlns="http://www.w3.org/2000/svg">
<path d="M25.4289 10.7435C23.9681 8.13469 21.4567 6.19024 18.4702 5.48896C18.4446 5.48084 18.4189 5.47521 18.3933 5.47146C17.6233 5.29646 16.8226 5.20395 16.0006 5.20395C10.6515 5.20395 6.19861 9.11286 5.34854 14.2243C5.34604 14.2349 5.34479 14.2456 5.34354 14.2562C5.25104 14.8243 5.20166 15.4075 5.20166 16.0012C5.20166 17.5026 5.50981 18.9326 6.0661 20.2333C6.07422 20.257 6.08423 20.2795 6.0961 20.302C7.07055 22.5371 8.77944 24.381 10.9171 25.5266C10.9377 25.5404 10.959 25.5535 10.9815 25.5641C10.9915 25.5691 11.0021 25.5729 11.0121 25.5766C12.5054 26.3573 14.2017 26.7998 16.0006 26.7998C18.749 26.7998 21.2604 25.7666 23.1681 24.0697C23.1999 24.0472 23.2293 24.0216 23.2543 23.9928C25.4295 22.0159 26.7971 19.1651 26.7971 16.0012C26.7971 14.1337 26.3202 12.3761 25.4826 10.8423C25.4689 10.806 25.4507 10.7735 25.4289 10.7435ZM16.0006 6.20212C16.4825 6.20212 16.9563 6.23774 17.4195 6.30525C16.1281 7.92093 14.9899 9.04035 12.6785 10.0398C10.6233 10.9273 9.89765 12.1286 9.36761 13.0061C8.97007 13.6643 8.77506 13.9587 8.31627 14.0299C7.69998 14.1268 7.0743 14.1024 6.41488 13.9568C7.35807 9.53225 11.2978 6.20212 16.0006 6.20212ZM7.08868 20.0727C7.62435 18.9551 8.18939 18.0163 8.81381 17.2088C8.88194 17.12 8.9282 17.0825 8.94945 17.0682C9.06571 17.1144 9.3226 17.3763 9.49574 17.5532C10.0452 18.1138 10.8752 18.9607 12.2122 19.0482C13.6736 19.1782 14.588 19.5639 14.7211 20.1058C14.8968 20.8214 13.9017 22.0384 12.2991 23.069C11.6884 23.3965 11.2846 23.9172 10.9952 24.4216C9.29135 23.4047 7.92062 21.8865 7.08868 20.0727ZM11.8797 24.8897C12.1553 24.421 12.4428 24.1209 12.7835 23.9422C12.796 23.9353 12.8085 23.9284 12.8204 23.9209C14.9118 22.5815 15.985 21.0658 15.6912 19.867C15.4393 18.8401 14.2961 18.2295 12.2941 18.052C12.2897 18.0513 12.286 18.0513 12.2816 18.0507C11.3234 17.9901 10.7315 17.3857 10.2095 16.8532C9.79701 16.4319 9.40698 16.0338 8.88632 16.065C8.56692 16.0838 8.28377 16.2581 8.0225 16.5975C7.51871 17.2494 7.05305 17.9776 6.61114 18.8039C6.3455 17.9151 6.20173 16.9738 6.20173 15.9994C6.20173 15.6431 6.22111 15.2912 6.25861 14.9443C6.7049 15.0393 7.13993 15.0875 7.56934 15.0875C7.87249 15.0875 8.17314 15.0637 8.47254 15.0168C9.41011 14.87 9.80577 14.2156 10.2245 13.5224C10.7102 12.7186 11.3146 11.718 13.0766 10.9567C15.7769 9.78851 17.0326 8.43095 18.5164 6.52963C20.896 7.16216 22.923 8.66971 24.2294 10.6854L21.6492 11.2117C21.6429 11.2129 21.6361 11.2142 21.6298 11.2161C21.5029 11.2473 21.371 11.2786 21.236 11.3111C19.6815 11.6811 17.5526 12.1874 17.5695 13.8987C17.5751 14.4368 17.3457 14.5374 16.9051 14.6824C16.7813 14.7231 16.6644 14.7618 16.5563 14.8206C15.7569 15.2562 15.5062 16.0138 15.8869 16.8475C16.3044 17.7619 17.317 18.5013 17.7333 18.7764C18.2696 19.1307 19.2646 19.6908 19.9047 19.4514C20.2785 19.3114 20.5566 18.8989 20.851 18.462C20.9185 18.3613 21.0098 18.2263 21.096 18.1101C21.136 18.2657 21.1823 18.5001 21.2254 18.8495C21.4067 20.3214 21.7598 21.8452 22.303 23.4978C20.5985 24.9328 18.3996 25.7991 16.0019 25.7991C14.5299 25.7991 13.1335 25.4729 11.8797 24.8897ZM23.1081 22.7384C22.6624 21.3121 22.3755 20.0208 22.2161 18.727C22.0942 17.7369 21.9005 17.0507 21.3523 16.9194C20.7779 16.7819 20.3935 17.3519 20.0222 17.9032C19.8884 18.1013 19.669 18.4276 19.5553 18.5113C19.3871 18.5157 18.8321 18.3345 18.122 17.8313C17.4232 17.3369 16.8976 16.7569 16.7501 16.3175C16.6663 16.0688 16.6863 15.8875 17.0338 15.6975C17.0626 15.6819 17.1482 15.6537 17.2176 15.6312C17.6608 15.4856 18.5827 15.1825 18.569 13.888C18.5602 12.9749 20.1722 12.5911 21.4673 12.283C21.6011 12.2511 21.7323 12.2199 21.8586 12.1886L24.7532 11.598C25.422 12.9218 25.7989 14.4174 25.7989 15.9994C25.7989 18.6082 24.7751 20.9808 23.1081 22.7384ZM0 16C0 12.928 0.873193 9.94351 2.5252 7.36966C4.02281 5.03582 6.0911 3.13762 8.53129 1.8482L6.17111 1.12192C5.90734 1.04067 5.7592 0.76128 5.84046 0.497519C5.92171 0.233759 6.20111 0.0856284 6.46488 0.166882L10.0477 1.2688C10.3114 1.35005 10.4596 1.62944 10.3783 1.8932L9.27822 5.47584C9.21197 5.69085 9.01445 5.82898 8.80069 5.82898C8.75193 5.82898 8.70255 5.8221 8.6538 5.8071C8.39003 5.72585 8.24189 5.44646 8.32315 5.1827L9.09071 2.68386C4.1597 5.24833 0.998828 10.4235 0.998828 16C0.998828 16.2763 0.775061 16.4994 0.499414 16.4994C0.223767 16.4994 0 16.2756 0 16ZM16.4988 31.5006C16.4988 31.7769 16.275 32 15.9994 32C12.9279 32 9.9439 31.1268 7.36995 29.4749C5.03602 27.9773 3.13712 25.9091 1.84702 23.469L1.12259 25.8285C1.05633 26.0435 0.858817 26.1816 0.64505 26.1816C0.596297 26.1816 0.546918 26.1748 0.498164 26.1598C0.234393 26.0785 0.0862567 25.7991 0.166888 25.5354L1.26697 21.9515C1.30573 21.8246 1.39323 21.719 1.51074 21.6565C1.62825 21.594 1.76514 21.5815 1.8914 21.6202L5.47418 22.7221C5.73795 22.8034 5.88608 23.0828 5.80483 23.3465C5.72357 23.6103 5.44418 23.7584 5.1804 23.6772L2.68083 22.9084C5.24728 27.8392 10.4233 31.0006 15.9987 31.0006C16.275 31.0012 16.4988 31.225 16.4988 31.5006ZM32 16C32 19.0739 31.1262 22.0596 29.4723 24.6347C27.9753 26.9661 25.9083 28.8636 23.4706 30.1531L25.8283 30.8781C26.092 30.9593 26.2402 31.2387 26.1589 31.5025C26.0927 31.7175 25.8951 31.8556 25.6814 31.8556C25.6326 31.8556 25.5832 31.8487 25.5345 31.8337L21.9517 30.7318C21.6879 30.6506 21.5398 30.3712 21.6211 30.1074L22.7211 26.5248C22.8024 26.261 23.0818 26.1129 23.3456 26.1941C23.6093 26.2754 23.7575 26.5548 23.6762 26.8185L22.908 29.3199C27.8403 26.7523 31.0012 21.5765 31.0012 16C31.0012 15.7244 31.2249 15.5006 31.5006 15.5006C31.7762 15.5006 32 15.7244 32 16ZM15.4993 0.499395C15.4993 0.223134 15.7231 0 15.9987 0C19.0765 0 22.0655 0.875659 24.6419 2.53322C26.9709 4.03078 28.8654 6.09649 30.1524 8.53283L30.8768 6.17337C30.958 5.90961 31.2374 5.76148 31.5012 5.84273C31.765 5.92398 31.9131 6.20337 31.8319 6.46713L30.7318 10.0498C30.693 10.1766 30.6049 10.2823 30.488 10.3448C30.4155 10.3835 30.3349 10.4029 30.2542 10.4029C30.2049 10.4029 30.1555 10.3954 30.1074 10.381L26.5246 9.27911C26.2608 9.19786 26.1127 8.91847 26.1939 8.65471C26.2752 8.39095 26.5546 8.24282 26.8183 8.32408L29.3167 9.09223C26.7521 4.15891 21.5786 0.998789 15.9994 0.998789C15.7231 0.998789 15.4993 0.77503 15.4993 0.499395Z" fill="white"/>
</svg>
